<svg width="25" height="17" viewBox="0 0 25 17" fill="none" xmlns="http://www.w3.org/2000/svg">
<path d="M1.99691 10.1327V1.12856C1.99691 0.505281 1.54988 0 0.998483 0C0.44703 0 0 0.505281 0 1.12856V15.8714C0 16.4947 0.44703 17 0.998483 17C1.54988 17 1.99691 16.4947 1.99691 15.8714V13.7571L22.4483 13.7029V15.8171C22.4483 16.4404 22.8954 16.9456 23.4468 16.9456C23.9983 16.9456 24.4453 16.4404 24.4453 15.8171V13.7029V10.7507V10.0783L1.99691 10.1327Z" fill="black"/>
<path d="M24.4442 9.16855H9.26562V4.91851C9.26562 3.68533 10.1502 2.68555 11.2413 2.68555H20.4557C22.6585 2.68555 24.4442 4.70382 24.4442 7.19361V9.16855Z" fill="black"/>
<path d="M5.71492 8.68222C7.06118 8.68222 8.15248 7.44874 8.15248 5.92705C8.15248 4.4055 7.06118 3.17188 5.71492 3.17188C4.36869 3.17188 3.27734 4.4055 3.27734 5.92705C3.27734 7.44874 4.36869 8.68222 5.71492 8.68222Z" fill="black"/>
</svg>
