<svg width="24" height="22" viewBox="0 0 24 22" fill="none" xmlns="http://www.w3.org/2000/svg">
<path d="M7.44847 0C6.69719 0.927094 6.351 1.72006 6.34375 2.49219C6.3365 3.26431 6.67997 3.86244 6.91016 4.2485C7.14034 4.63456 7.24275 4.8285 7.25 5.04056C7.25725 5.25353 7.18656 5.62509 6.6265 6.34375L8.04297 7.47656C8.75075 6.56306 9.08697 5.742 9.0625 4.98438C9.03803 4.22675 8.69094 3.68481 8.468 3.31325C8.24506 2.94169 8.15263 2.74322 8.15625 2.52028C8.15987 2.29734 8.25594 1.88319 8.86403 1.13281L7.44847 0ZM11.9797 0C11.2284 0.927094 10.8822 1.72006 10.875 2.49219C10.8678 3.26431 11.2112 3.86244 11.4414 4.2485C11.6716 4.63456 11.774 4.8285 11.7812 5.04056C11.7885 5.25353 11.7178 5.62509 11.1578 6.34375L12.5742 7.47656C13.282 6.56306 13.6182 5.742 13.5938 4.98438C13.5693 4.22675 13.2222 3.68481 12.9992 3.31325C12.7763 2.94169 12.6839 2.74322 12.6875 2.52028C12.6911 2.29734 12.7872 1.88319 13.3953 1.13281L11.9797 0ZM16.511 0C15.7597 0.927094 15.4135 1.72006 15.4062 2.49219C15.399 3.26431 15.7425 3.86244 15.9727 4.2485C16.2028 4.63456 16.3053 4.8285 16.3125 5.04056C16.3197 5.25353 16.2491 5.62509 15.689 6.34375L17.1055 7.47656C17.8132 6.56306 18.1495 5.742 18.125 4.98438C18.1005 4.22675 17.7534 3.68481 17.5305 3.31325C17.3076 2.94169 17.2151 2.74322 17.2188 2.52028C17.2224 2.29734 17.3184 1.88319 17.9265 1.13281L16.511 0ZM0 8.72266V10.5352H1.07663L2.46319 17.4172V17.4453C2.56828 17.9075 2.79006 18.335 3.10737 18.687C3.42467 19.0391 3.82691 19.3039 4.27569 19.4563L3.625 21.4102H5.4375L6.032 19.5977H17.5305L18.125 21.4102H19.9375L19.2859 19.4563C20.2348 19.1663 20.9715 18.405 21.1836 17.4453V17.4172L22.4868 10.5352H23.5625V8.72266H0ZM2.91722 10.5352H20.6734L19.3992 17.0774C19.2932 17.4698 18.9606 17.7852 18.4929 17.7852H5.15475C4.669 17.7852 4.34003 17.4634 4.2485 17.0484L2.91722 10.5352Z" fill="black"/>
</svg>
