<svg width="30" height="30" viewBox="0 0 30 30" fill="none" xmlns="http://www.w3.org/2000/svg">
<mask id="mask0_366_2557" style="mask-type:luminance" maskUnits="userSpaceOnUse" x="0" y="0" width="30" height="30">
<path d="M30 0H0V30H30V0Z" fill="white"/>
</mask>
<g mask="url(#mask0_366_2557)">
<path d="M28.7499 23.75C28.7499 24.0814 28.6182 24.3994 28.3839 24.6339C28.1494 24.8683 27.8316 25 27.5 25H12.5C12.1684 25 11.8506 24.8683 11.6161 24.6339C11.3817 24.3994 11.25 24.0814 11.25 23.75C11.25 21.7608 12.0402 19.8533 13.4467 18.4468C14.8532 17.0401 16.7609 16.2499 18.75 16.2499H21.25C23.239 16.2499 25.1468 17.0401 26.5532 18.4468C27.9597 19.8533 28.7499 21.7608 28.7499 23.75ZM20.0001 5C19.011 5 18.0444 5.29324 17.2222 5.84265C16.3999 6.39206 15.7591 7.17287 15.3806 8.08651C15.0022 9.00015 14.9031 10.0055 15.0961 10.9754C15.2889 11.9453 15.7651 12.8363 16.4644 13.5356C17.1637 14.2349 18.0547 14.7109 19.0246 14.9039C19.9945 15.0968 20.9997 14.9978 21.9133 14.6194C22.827 14.2409 23.6079 13.6001 24.1574 12.7778C24.7067 11.9556 24.9999 10.9888 24.9999 9.99996C24.9999 8.67393 24.4732 7.40216 23.5355 6.46447C22.5979 5.52678 21.3261 5 20.0001 5ZM8.75002 5C7.76113 5 6.79441 5.29324 5.97215 5.84265C5.1499 6.39206 4.50904 7.17287 4.1306 8.08651C3.75216 9.00015 3.65316 10.0055 3.84608 10.9754C4.039 11.9453 4.51521 12.8363 5.21447 13.5356C5.91373 14.2349 6.80465 14.7109 7.77456 14.9039C8.74447 15.0968 9.74983 14.9978 10.6635 14.6194C11.5771 14.2409 12.3579 13.6001 12.9073 12.7778C13.4568 11.9556 13.7499 10.9888 13.7499 9.99996C13.7499 8.67393 13.2231 7.40216 12.2855 6.46447C11.3478 5.52678 10.076 5 8.75002 5ZM8.75002 23.75C8.74817 22.4369 9.00686 21.1366 9.51113 19.9243C10.0152 18.712 10.755 17.6119 11.6875 16.6875C10.9243 16.3994 10.1157 16.2511 9.29998 16.2499H8.20006C6.35776 16.2533 4.59192 16.9865 3.28926 18.2892C1.9866 19.5919 1.25331 21.3577 1.25 23.1999V23.75C1.25 24.0814 1.3817 24.3994 1.61613 24.6339C1.85054 24.8683 2.16847 25 2.5 25H8.97494C8.82947 24.5992 8.75338 24.1764 8.75002 23.75Z" fill="black"/>
</g>
</svg>
