<svg width="30" height="30" viewBox="0 0 30 30" fill="none" xmlns="http://www.w3.org/2000/svg">
<mask id="mask0_577_1107" style="mask-type:luminance" maskUnits="userSpaceOnUse" x="6" y="6" width="18" height="18">
<path d="M23.8594 6H6V23.8594H23.8594V6Z" fill="white"/>
</mask>
<g mask="url(#mask0_577_1107)">
<path d="M23.1152 20.1387C23.1152 20.336 23.0368 20.5253 22.8973 20.6649C22.7577 20.8044 22.5685 20.8828 22.3711 20.8828H13.4414C13.244 20.8828 13.0548 20.8044 12.9152 20.6649C12.7757 20.5253 12.6973 20.336 12.6973 20.1387C12.6973 18.9545 13.1677 17.8189 14.005 16.9816C14.8423 16.1442 15.978 15.6738 17.1621 15.6738H18.6504C19.8345 15.6738 20.9702 16.1442 21.8075 16.9816C22.6448 17.8189 23.1152 18.9545 23.1152 20.1387ZM17.9063 8.97656C17.3175 8.97656 16.7421 9.15113 16.2526 9.4782C15.7631 9.80527 15.3816 10.2701 15.1563 10.814C14.931 11.3579 14.872 11.9564 14.9869 12.5338C15.1017 13.1112 15.3852 13.6416 15.8015 14.0579C16.2178 14.4742 16.7482 14.7576 17.3256 14.8725C17.903 14.9873 18.5014 14.9284 19.0453 14.7031C19.5892 14.4778 20.0541 14.0963 20.3812 13.6068C20.7082 13.1173 20.8828 12.5418 20.8828 11.9531C20.8828 11.1637 20.5692 10.4066 20.011 9.84838C19.4528 9.29016 18.6957 8.97656 17.9063 8.97656ZM11.209 8.97656C10.6203 8.97656 10.0448 9.15113 9.5553 9.4782C9.0658 9.80527 8.68429 10.2701 8.459 10.814C8.23371 11.3579 8.17477 11.9564 8.28962 12.5338C8.40447 13.1112 8.68796 13.6416 9.10424 14.0579C9.52052 14.4742 10.0509 14.7576 10.6283 14.8725C11.2057 14.9873 11.8042 14.9284 12.3481 14.7031C12.892 14.4778 13.3568 14.0963 13.6839 13.6068C14.011 13.1173 14.1855 12.5418 14.1855 11.9531C14.1855 11.1637 13.8719 10.4066 13.3137 9.84838C12.7555 9.29016 11.9984 8.97656 11.209 8.97656ZM11.209 20.1387C11.2079 19.357 11.3619 18.5829 11.6621 17.8612C11.9622 17.1395 12.4026 16.4846 12.9577 15.9343C12.5034 15.7628 12.022 15.6745 11.5364 15.6738H10.8816C9.78486 15.6758 8.73363 16.1123 7.95814 16.8878C7.18265 17.6633 6.74611 18.7145 6.74414 19.8112V20.1387C6.74414 20.336 6.82254 20.5253 6.9621 20.6649C7.10165 20.8044 7.29092 20.8828 7.48828 20.8828H11.3429C11.2563 20.6442 11.211 20.3925 11.209 20.1387Z" fill="#361C12"/>
</g>
</svg>
