<svg width="21" height="21" viewBox="0 0 21 21" fill="none" xmlns="http://www.w3.org/2000/svg">
<path d="M11.5665 1.05078C12.5804 1.05078 13.404 1.87438 13.404 2.88828C13.404 3.90219 12.5804 4.72578 11.5665 4.72578C10.5526 4.72578 9.72898 3.90219 9.72898 2.88828C9.72898 1.87438 10.5526 1.05078 11.5665 1.05078ZM7.20569 7.87578C7.09741 7.87578 7.00226 7.94141 6.96288 8.03984L6.24101 9.84125C6.02444 10.3794 5.41413 10.6419 4.87601 10.4253C4.33788 10.2088 4.07538 9.59844 4.29194 9.06031L5.01054 7.25891C5.37148 6.36313 6.23773 5.77578 7.20569 5.77578H10.3984C11.3335 5.77578 12.1965 6.27125 12.6657 7.07844L13.7419 8.92578H15.7632C16.344 8.92578 16.8132 9.395 16.8132 9.97578C16.8132 10.5566 16.344 11.0258 15.7632 11.0258H13.7419C12.9938 11.0258 12.3048 10.6288 11.9274 9.98234L11.5993 9.42125L10.9201 11.7313L13.3941 12.4728C14.303 12.7452 14.7657 13.7525 14.3818 14.622L12.5246 18.8023C12.2884 19.3339 11.6682 19.5702 11.1399 19.3339C10.6116 19.0977 10.3721 18.4775 10.6083 17.9492L12.2227 14.3136L9.07601 13.3686C8.00304 13.047 7.36976 11.9347 7.6421 10.8486L8.38694 7.87578H7.20898H7.20569ZM6.94319 13.8148C7.3796 14.3038 7.95054 14.6778 8.62319 14.878L8.77741 14.9239L8.55101 15.5572C8.36069 16.092 8.02601 16.5678 7.5896 16.9288L4.88585 19.1567C4.4396 19.5242 3.77679 19.4619 3.40929 19.0156C3.04179 18.5694 3.10413 17.9066 3.55038 17.5391L6.25413 15.3111C6.40179 15.1897 6.51007 15.0322 6.57569 14.855L6.94319 13.8148Z" fill="black"/>
</svg>
