<svg width="30" height="30" viewBox="0 0 30 30" fill="none" xmlns="http://www.w3.org/2000/svg">
<path d="M10.7662 5.0053C11.1492 4.72425 11.1383 4.74566 13.8322 3.22118C13.8381 3.21824 13.8433 3.2147 13.8492 3.21177C12.4365 1.22293 10.1301 0 7.62959 0C3.42292 0 0 3.4247 0 7.63347V29.7059C0 29.8683 0.131695 30 0.293958 30H3.2336C3.39587 30 3.52756 29.8683 3.52756 29.7059V7.63347C3.52756 5.36116 5.38311 3.51413 7.65786 3.52942C8.8771 3.53766 10.0019 4.09884 10.7662 5.0053Z" fill="black"/>
<path d="M16.593 20.6853C17.0734 20.6051 17.398 20.1504 17.3178 19.6699L17.1816 18.8526C17.1016 18.3718 16.6472 18.0472 16.1666 18.1274C15.6863 18.2076 15.3617 18.6621 15.4418 19.1429L15.5781 19.9602C15.6581 20.4407 16.1125 20.7655 16.593 20.6853Z" fill="black"/>
<path d="M21.0661 18.2322C21.4907 17.9936 21.6419 17.4557 21.4035 17.0309L21.0221 16.3511C20.7839 15.9261 20.2462 15.7748 19.8217 16.0136C19.3969 16.252 19.2457 16.7899 19.4841 17.2149L19.8655 17.8944C20.1039 18.3198 20.642 18.4703 21.0661 18.2322Z" fill="black"/>
<path d="M25.4878 15.6894C25.8063 15.3207 25.766 14.7636 25.3977 14.4446L24.7714 13.9025C24.403 13.5837 23.8462 13.6241 23.5274 13.9926C23.2088 14.361 23.2492 14.9183 23.6174 15.2371L24.2437 15.7793C24.6121 16.098 25.169 16.0578 25.4878 15.6894Z" fill="black"/>
<path d="M17.5594 24.0873C17.4891 23.6051 17.0415 23.2712 16.5594 23.3413C16.0775 23.4116 15.7438 23.8597 15.814 24.3418L15.9374 25.1894C16.0078 25.6722 16.4559 26.0055 16.9374 25.9352C17.4193 25.8649 17.753 25.4171 17.6828 24.9349L17.5594 24.0873Z" fill="black"/>
<path d="M21.4284 21.6808C21.2458 21.2292 20.7318 21.0108 20.2802 21.1934C19.8286 21.376 19.6105 21.8905 19.793 22.3422L20.095 23.0894C20.2776 23.5415 20.7918 23.7594 21.243 23.5768C21.6947 23.3942 21.9127 22.8799 21.7302 22.4282L21.4284 21.6808Z" fill="black"/>
<path d="M25.2462 19.2782C24.9559 18.8871 24.4035 18.8053 24.0125 19.096C23.6214 19.3864 23.5398 19.9391 23.8301 20.3304L24.3104 20.9774C24.601 21.3687 25.1534 21.4503 25.5442 21.1598C25.9353 20.8693 26.0169 20.3167 25.7265 19.9254L25.2462 19.2782Z" fill="black"/>
<path d="M29.6819 17.471L29.0234 16.9242C28.6484 16.6129 28.0924 16.6646 27.7813 17.0395C27.4704 17.4146 27.5221 17.9709 27.8968 18.282L28.5556 18.829C28.9305 19.1403 29.4863 19.0884 29.7974 18.7135C30.1085 18.3386 30.0567 17.7823 29.6819 17.471Z" fill="black"/>
<path d="M10.9227 12.4099L20.7416 6.85285L20.4612 6.35633C19.3169 4.33047 16.7449 3.60082 14.7007 4.75699C12.0501 6.25655 12.0079 6.25776 11.6394 6.55995C10.1103 7.80953 9.59241 10.0586 10.6417 11.913L10.9227 12.4099Z" fill="black"/>
<path d="M24.2615 8.82097L23.8724 8.13275C23.6314 7.70451 23.0859 7.55645 22.6625 7.79622C22.1525 8.08428 10.9805 14.4067 10.7434 14.541C10.3211 14.7792 10.1652 15.3218 10.4077 15.7516L10.7969 16.4404C11.1222 17.0157 11.8506 17.2177 12.426 16.8927L23.8095 10.4511C24.3838 10.1255 24.5872 9.39708 24.2615 8.82097Z" fill="black"/>
</svg>
