<svg width="19" height="17" viewBox="0 0 19 17" fill="none" xmlns="http://www.w3.org/2000/svg">
<path d="M0 16.962V15.923C0.518 15.859 0.932 15.689 1.242 15.413C1.55267 15.1377 2.09767 15 2.877 15C3.65633 15 4.234 15.1667 4.61 15.5C4.986 15.8333 5.51233 16 6.189 16C6.86567 16 7.39167 15.8333 7.767 15.5C8.14233 15.1667 8.72 15 9.5 15C10.28 15 10.864 15.1667 11.252 15.5C11.64 15.8333 12.1727 16 12.85 16C13.5273 16 14.0473 15.8333 14.41 15.5C14.7727 15.1667 15.3437 15 16.123 15C16.9023 15 17.4473 15.138 17.758 15.414C18.0687 15.69 18.4827 15.8597 19 15.923V16.962C18.4013 16.8847 17.9287 16.705 17.582 16.423C17.2353 16.141 16.749 16 16.123 16C15.497 16 15.003 16.1667 14.641 16.5C14.2777 16.8333 13.6807 17 12.85 17C12.0193 17 11.4097 16.8333 11.021 16.5C10.633 16.1667 10.126 16 9.5 16C8.874 16 8.37333 16.1667 7.998 16.5C7.62267 16.8333 7.01933 17 6.188 17C5.35667 17 4.75333 16.8333 4.378 16.5C4.00333 16.1667 3.503 16 2.877 16C2.251 16 1.76467 16.141 1.418 16.423C1.07133 16.705 0.598667 16.8847 0 16.962ZM0 12.462V11.423C0.518 11.359 0.932 11.189 1.242 10.913C1.55267 10.6377 2.09767 10.5 2.877 10.5C3.65633 10.5 4.235 10.6667 4.613 11C4.991 11.3333 5.51633 11.5 6.189 11.5C6.86567 11.5 7.39167 11.3333 7.767 11C8.14233 10.6667 8.72 10.5 9.5 10.5C10.28 10.5 10.8577 10.6667 11.233 11C11.6083 11.3333 12.1343 11.5 12.811 11.5C13.4877 11.5 14.0143 11.3333 14.391 11C14.7663 10.6667 15.3437 10.5 16.123 10.5C16.9023 10.5 17.4473 10.638 17.758 10.914C18.0687 11.19 18.4827 11.3597 19 11.423V12.461C18.4013 12.3843 17.9287 12.205 17.582 11.923C17.2353 11.641 16.749 11.5 16.123 11.5C15.497 11.5 15.0057 11.6667 14.649 12C14.2923 12.3333 13.6927 12.5 12.85 12.5C12.0153 12.5 11.4047 12.3333 11.018 12C10.6313 11.6667 10.1253 11.5 9.5 11.5C8.86667 11.5 8.367 11.6667 8.001 12C7.635 12.3333 7.031 12.5 6.189 12.5C5.347 12.5 4.74067 12.3333 4.37 12C3.99933 11.6667 3.50167 11.5 2.877 11.5C2.25233 11.5 1.766 11.641 1.418 11.923C1.07 12.205 0.597333 12.3847 0 12.462ZM15.427 0.815C15.8403 1.22967 16.047 1.72733 16.047 2.308C16.047 2.89267 15.8403 3.39133 15.427 3.804C15.0137 4.21667 14.515 4.423 13.931 4.423C13.347 4.423 12.848 4.21633 12.434 3.803C12.022 3.391 11.816 2.89267 11.816 2.308C11.816 1.72733 12.022 1.22967 12.434 0.815C12.8473 0.399667 13.3463 0.192 13.931 0.192C14.5157 0.192 15.0143 0.399667 15.427 0.815ZM6.169 8C5.98567 8 5.82467 7.97167 5.686 7.915C5.54733 7.85833 5.41367 7.77633 5.285 7.669L8.514 4.44L6.975 2.902L3.238 1.385V0L7.892 1.846L13.716 7.669C13.586 7.77567 13.452 7.85733 13.314 7.914C13.1753 7.97133 13.0143 8 12.831 8C12.3843 8 11.9443 7.83333 11.511 7.5C11.0777 7.16667 10.4073 7 9.5 7C8.59267 7 7.92233 7.16667 7.489 7.5C7.05567 7.83333 6.61567 8 6.169 8Z" fill="black"/>
</svg>
