<svg width="20" height="20" viewBox="0 0 20 20" fill="none" xmlns="http://www.w3.org/2000/svg">
<path d="M13.0035 15.7625H6.4985M6.4985 13.75H13.0015M18.0285 16.0745H18.446C18.7525 16.0745 19 15.829 19 15.5225V13.9465C19 13.6415 18.753 13.3945 18.448 13.3945H18.0305M16.084 17.6845H17.477C17.5495 17.6847 17.6213 17.6706 17.6883 17.6429C17.7553 17.6153 17.8162 17.5747 17.8674 17.5234C17.9187 17.4722 17.9593 17.4113 17.9869 17.3443C18.0146 17.2773 18.0287 17.2055 18.0285 17.133V12.338C18.0289 12.1917 17.9712 12.0512 17.8681 11.9474C17.7649 11.8436 17.6248 11.785 17.4785 11.7845H16.086M1.4695 16.0765H1.054C0.98151 16.0768 0.909678 16.0627 0.842606 16.0352C0.775533 16.0078 0.714534 15.9673 0.66309 15.9162C0.611646 15.8652 0.570766 15.8045 0.542783 15.7376C0.5148 15.6707 0.500262 15.599 0.5 15.5265V13.9465C0.5 13.6405 0.7455 13.3945 1.054 13.3945H1.4695M3.416 17.6845H2.021C1.87473 17.6845 1.73446 17.6264 1.63103 17.523C1.5276 17.4195 1.4695 17.2793 1.4695 17.133V12.338C1.4695 12.032 1.715 11.7845 2.0215 11.7845H3.4125M8.3165 12.017H13.0015M6.4965 11.478L7.262 10.709M8.317 8.239H14.942M4.6295 8.1595L5.3345 8.8665L7.262 6.9295M8.317 4.4595H14.942M4.6295 4.3795L5.3345 5.0865L7.262 3.1515M13.002 17.4015H6.498M2.437 11.784V1.6055C2.437 0.993 2.927 0.5 3.5335 0.5H15.9685C16.577 0.5 17.0665 0.9915 17.0665 1.6055V11.7845M15.534 10.607H13.555C13.25 10.607 13.003 10.854 13.003 11.159V18.31C13.0027 18.3826 13.0168 18.4545 13.0445 18.5216C13.0721 18.5886 13.1128 18.6496 13.1641 18.7009C13.2154 18.7522 13.2764 18.7929 13.3434 18.8205C13.4105 18.8482 13.4824 18.8623 13.555 18.862H15.5335C15.6061 18.8623 15.678 18.8482 15.7451 18.8205C15.8121 18.7929 15.8731 18.7522 15.9244 18.7009C15.9757 18.6496 16.0164 18.5886 16.044 18.5216C16.0717 18.4545 16.0858 18.3826 16.0855 18.31V11.161C16.0858 11.0885 16.0717 11.0167 16.0442 10.9496C16.0168 10.8825 15.9763 10.8215 15.9252 10.7701C15.8742 10.7186 15.8135 10.6778 15.7466 10.6498C15.6797 10.6218 15.608 10.6073 15.5355 10.607H15.534ZM3.966 10.607H5.943C6.251 10.607 6.4965 10.8525 6.4965 11.161V18.31C6.49677 18.3827 6.48262 18.4547 6.45488 18.5219C6.42714 18.5891 6.38635 18.6501 6.33488 18.7014C6.28341 18.7528 6.22228 18.7934 6.15501 18.821C6.08775 18.8485 6.01569 18.8625 5.943 18.862H3.968C3.663 18.862 3.416 18.615 3.416 18.31V11.161C3.416 10.8545 3.662 10.607 3.968 10.607H3.966Z" stroke="black" stroke-linecap="round" stroke-linejoin="round"/>
</svg>
