<svg width="64" height="64" viewBox="0 0 64 64" fill="none" xmlns="http://www.w3.org/2000/svg">
<mask id="mask0_366_2300" style="mask-type:luminance" maskUnits="userSpaceOnUse" x="0" y="0" width="64" height="64">
<path d="M64 0H0V64H64V0Z" fill="white"/>
<path d="M63.2002 0.799805V63.2002H0.799805V0.799805H63.2002Z" stroke="white" stroke-width="1.6"/>
</mask>
<g mask="url(#mask0_366_2300)">
<mask id="path-3-inside-1_366_2300" fill="white">
<path d="M57 32H56V30.4982C56.6747 30.061 57.2448 29.4803 57.6696 28.7978C58.0944 28.1152 58.3637 27.3474 58.4581 26.5488L58.957 22.0635C59.035 21.2571 58.9717 20.4432 58.7698 19.6586C59.5944 19.3482 60.3221 18.825 60.8789 18.1422C61.4357 17.4594 61.8016 16.6413 61.9397 15.7711C62.0778 14.9009 61.983 14.0097 61.665 13.1881C61.3469 12.3664 60.817 11.6436 60.129 11.0933C59.441 10.5429 58.6194 10.1845 57.748 10.0546C56.8766 9.92462 55.9862 10.0278 55.1677 10.3535C54.349 10.6792 53.6312 11.2159 53.0874 11.9091C52.5434 12.6022 52.1926 13.427 52.0709 14.2996C52.047 14.2993 52.024 14.292 52 14.292C51.0157 14.2919 50.0422 14.4994 49.1437 14.9011C48.245 15.3027 47.441 15.8893 46.7845 16.6227C46.1278 17.3562 45.6334 18.2198 45.3333 19.1574C45.0333 20.0949 44.9342 21.0851 45.043 22.0635L45.5419 26.5488C45.6363 27.3472 45.9056 28.115 46.3304 28.7974C46.7552 29.48 47.3253 30.0605 48 30.4976V32H47C45.2954 32.0054 43.6514 32.6341 42.3779 33.7672C41.1045 34.9005 40.2891 36.4602 40.0858 38.1528L37.0488 37.4771C37.0493 37.4464 37.0595 37.4112 37.0595 37.3808V35.3184L37.251 35.209C38.284 34.6174 39.163 33.7909 39.8168 32.796C40.4706 31.8013 40.8806 30.6664 41.0136 29.4834L41.7451 22.9005C41.8973 21.5299 41.7586 20.1429 41.3382 18.8296C40.9178 17.5165 40.2253 16.3066 39.3056 15.2792C38.3859 14.2519 37.2598 13.43 36.0011 12.8673C34.7422 12.3047 33.3789 12.0139 32 12.0139C30.6211 12.0139 29.2578 12.3047 27.9989 12.8673C26.7402 13.43 25.6141 14.2519 24.6944 15.2792C23.7747 16.3066 23.0822 17.5165 22.6618 18.8296C22.2414 20.1429 22.1027 21.5299 22.2549 22.9005L22.9864 29.4834C23.1194 30.6664 23.5294 31.8013 24.1832 32.796C24.837 33.7909 25.716 34.6174 26.749 35.209L26.9405 35.3184V37.381C26.9405 37.4112 26.9506 37.4466 26.9512 37.4773L23.9142 38.1528C23.7109 36.4602 22.8955 34.9005 21.6221 33.7672C20.3486 32.6341 18.7046 32.0054 17 32H16V30.493C16.6749 30.0562 17.245 29.4758 17.6699 28.7934C18.0947 28.111 18.3638 27.3432 18.4581 26.545L18.957 22.0595C19.0656 21.0811 18.9667 20.0909 18.6667 19.1533C18.3666 18.2158 17.8722 17.352 17.2155 16.6186C16.559 15.8851 15.7552 15.2983 14.8565 14.8966C13.9578 14.4949 12.9844 14.2873 12 14.2873C11.0156 14.2873 10.0423 14.4949 9.14358 14.8966C8.24488 15.2983 7.44101 15.8851 6.78446 16.6186C6.12792 17.352 5.63347 18.2158 5.33339 19.1533C5.03333 20.0909 4.93438 21.0811 5.04302 22.0595L5.542 26.545C5.63621 27.3448 5.90602 28.1139 6.3321 28.7973C6.75818 29.4806 7.33003 30.0614 8.00672 30.4981L8 30.5314V32H7C5.14418 32.0022 3.36501 32.7405 2.05274 34.0528C0.740471 35.365 0.00224941 37.1442 0 39V47C0.00139239 48.3256 0.528624 49.5966 1.466 50.5341C2.40339 51.4714 3.67435 51.9986 5 52H12.7197V55C12.7196 55.1314 12.7455 55.2614 12.7957 55.3827C12.8459 55.5042 12.9196 55.6144 13.0124 55.7074C13.1053 55.8002 13.2156 55.8738 13.3369 55.924C13.4583 55.9742 13.5884 56.0002 13.7197 56H50.2803C50.4117 56.0002 50.5418 55.9742 50.663 55.924C50.7845 55.8738 50.8947 55.8002 50.9875 55.7074C51.0805 55.6144 51.1541 55.5042 51.2043 55.3827C51.2546 55.2614 51.2803 55.1314 51.2803 55V52H59C60.3256 51.9986 61.5966 51.4714 62.5339 50.5341C63.4714 49.5966 63.9986 48.3256 64 47V39C63.9978 37.1442 63.2595 35.365 61.9472 34.0528C60.635 32.7405 58.8558 32.0022 57 32ZM57 12C57.7954 12.0009 58.5579 12.3172 59.1203 12.8797C59.6827 13.4421 59.9992 14.2046 60 15C59.9941 15.606 59.8029 16.1957 59.4518 16.6896C59.1008 17.1837 58.607 17.5584 58.0368 17.7634C57.1645 16.237 55.7285 15.1135 54.037 14.6342C54.1246 13.9093 54.4742 13.2415 55.02 12.7563C55.5656 12.2712 56.2699 12.0022 57 12ZM47.0414 21.9355L47.0312 21.8427C46.879 20.5338 47.2507 19.2178 48.0651 18.1818C48.8794 17.1458 50.0704 16.4738 51.3782 16.3125C52.6861 16.1512 54.0048 16.5136 55.0464 17.3206C56.0882 18.1278 56.7683 19.3141 56.9389 20.6208C56.336 20.2104 55.7699 19.7485 55.247 19.2402C55.088 19.0854 54.8822 18.9877 54.6618 18.9621C54.4413 18.9365 54.2186 18.9845 54.0283 19.0986C52.1573 20.2454 50.135 21.1254 48.0205 21.7128C47.6802 21.8029 47.3682 21.8602 47.0414 21.9355ZM47.5302 26.3282L47.264 23.9336C47.6862 23.8403 48.0941 23.7626 48.543 23.6437C50.5934 23.0766 52.5645 22.2538 54.4093 21.1944C55.1558 21.8578 55.9742 22.4354 56.8493 22.9166L56.4698 26.3282C56.4088 26.871 56.2208 27.392 55.921 27.8488C55.6211 28.3054 55.2181 28.6851 54.7442 28.9571L52.9814 29.964C52.6822 30.1339 52.3442 30.2232 52 30.2232C51.656 30.2232 51.3178 30.1339 51.0186 29.964L49.2558 28.9571C48.7821 28.6851 48.3789 28.3054 48.079 27.8488C47.7792 27.392 47.5912 26.871 47.5302 26.3282ZM54 31.6853V32.9669C54 33.4973 53.7893 34.0059 53.4142 34.381C53.0392 34.7562 52.5304 34.9669 52 34.9669C51.4696 34.9669 50.9608 34.7562 50.5858 34.381C50.2107 34.0059 50 33.4973 50 32.9669V31.6853L50.0264 31.7002C50.6278 32.0426 51.308 32.2227 52 32.2227C52.692 32.2227 53.3722 32.0426 53.9736 31.7002L54 31.6853ZM26.1846 16.6133C27.2877 15.3808 28.7539 14.5306 30.3715 14.1855C31.9891 13.8404 33.6747 14.0181 35.1848 14.6931C36.6949 15.368 37.9514 16.5053 38.7731 17.9408C39.595 19.3763 39.9394 21.0357 39.7568 22.6797L39.6853 23.3234C39.0846 23.1888 38.4941 23.0696 37.8662 22.8936C34.7195 22.005 31.7072 20.6952 28.9112 19C28.7213 18.8853 28.4984 18.8368 28.2781 18.8624C28.0576 18.8882 27.8518 18.9862 27.6933 19.1416C26.6522 20.1723 25.4926 21.0763 24.2392 21.8347C24.2206 19.9138 24.9136 18.0539 26.1846 16.6133ZM24.3928 24.0269C25.8928 23.2326 27.2846 22.2491 28.5342 21.1006C31.2979 22.7027 34.2517 23.952 37.3262 24.8194C38.0634 25.0261 38.761 25.1715 39.463 25.3246L39.1725 27.9405H37.5195C36.7118 27.9405 35.9149 27.7547 35.1904 27.3974C34.195 26.9133 33.1026 26.6619 31.9957 26.6627C30.8888 26.6634 29.7965 26.916 28.8018 27.4014C28.0795 27.7565 27.2853 27.941 26.4805 27.9406H24.8277L24.3928 24.0269ZM25.1331 29.9405H26.4805C27.5864 29.9416 28.6779 29.6891 29.6709 29.2022C30.395 28.8488 31.1899 28.6648 31.9957 28.664C32.8014 28.6634 33.5966 28.8461 34.3213 29.1982C35.3165 29.6874 36.4107 29.9413 37.5195 29.9403H38.867C38.6958 30.6758 38.3762 31.3686 37.9277 31.9763C37.4792 32.5838 36.9114 33.0933 36.2589 33.4736L33.4883 35.0586C33.0346 35.3158 32.5218 35.451 32 35.451C31.4784 35.451 30.9656 35.3158 30.5118 35.0586L27.7413 33.4736C27.0888 33.0933 26.521 32.5838 26.0723 31.9763C25.6238 31.3688 25.3043 30.676 25.1331 29.9405ZM35.0595 36.4621V37.381C35.0571 37.6051 35.0314 37.8283 34.9824 38.047C34.837 38.7298 34.4616 39.3419 33.919 39.7813C33.3766 40.2206 32.6997 40.4606 32.0016 40.4611C31.3035 40.4616 30.6264 40.2226 30.0834 39.7838C29.5402 39.3453 29.164 38.7336 29.0176 38.051C28.969 37.8309 28.943 37.6064 28.9405 37.381V36.4621L29.5195 36.7931C30.275 37.2245 31.1301 37.4514 32 37.4514C32.8701 37.4514 33.725 37.2245 34.4805 36.7931L35.0595 36.4621ZM7.04158 21.9317L7.03133 21.839C6.87928 20.5302 7.2509 19.2144 8.06514 18.1784C8.87938 17.1426 10.0702 16.4706 11.3779 16.3093C12.6855 16.1478 14.004 16.5099 15.0457 17.3168C16.0874 18.1235 16.7678 19.3094 16.9387 20.616C16.336 20.2056 15.77 19.7437 15.2471 19.2355C15.0883 19.0802 14.8824 18.9822 14.6618 18.9566C14.4412 18.9312 14.2184 18.9798 14.0284 19.0949C12.1573 20.2419 10.1352 21.1218 8.02058 21.7091C7.68018 21.799 7.36824 21.8563 7.04158 21.9317ZM7.53034 26.3243L7.264 23.9298C7.68624 23.8365 8.094 23.7587 8.54306 23.6397C10.5938 23.0726 12.565 22.2498 14.4102 21.1906C15.1558 21.8541 15.9742 22.4314 16.8496 22.9109L16.4698 26.3243C16.409 26.867 16.221 27.388 15.9212 27.8446C15.6214 28.3011 15.2182 28.6806 14.7442 28.9523L12.9815 29.9592C12.6824 30.1291 12.3442 30.2184 12.0001 30.2184C11.656 30.2184 11.3178 30.1291 11.0186 29.9592L9.25594 28.9523C8.782 28.6806 8.37877 28.3011 8.07894 27.8446C7.77912 27.388 7.5912 26.8672 7.53034 26.3243ZM14 31.6803V32.9629C14 33.4933 13.7893 34.0021 13.4142 34.3771C13.0391 34.7522 12.5304 34.9629 12 34.9629C11.4696 34.9629 10.9609 34.7522 10.5858 34.3771C10.2107 34.0021 10 33.4933 10 32.9629V31.6803L10.0264 31.6954C10.6278 32.0378 11.3079 32.2178 12 32.2178C12.692 32.2178 13.3722 32.0378 13.9736 31.6954L14 31.6803ZM12.7197 47.9805V50H5C4.20462 49.9992 3.44206 49.6829 2.87963 49.1203C2.31722 48.5579 2.00086 47.7954 2 47V39C2.00139 37.6744 2.52862 36.4034 3.466 35.4661C4.40339 34.5286 5.67435 34.0014 7 34H8.15368C8.37779 34.8493 8.87662 35.6003 9.57238 36.1363C10.2681 36.6723 11.1217 36.9629 12 36.9629C12.8783 36.9629 13.7318 36.6723 14.4276 36.1363C15.1234 35.6003 15.6222 34.8493 15.8463 34H17C18.2541 34.0038 19.4606 34.4795 20.3797 35.3326C21.2989 36.1858 21.863 37.3536 21.96 38.6038L19.8643 39.0626C17.8309 39.5035 16.011 40.6304 14.7102 42.2542C13.4093 43.8781 12.7065 45.8998 12.7197 47.9805ZM49.2803 54H14.7197V47.9805C14.7087 46.3562 15.2566 44.7776 16.2715 43.5094C17.2866 42.2413 18.7067 41.3608 20.2941 41.0157L23.2141 40.377C23.2774 40.363 23.3392 40.3427 23.3986 40.3165L27.381 39.4312C27.7717 40.3314 28.4171 41.0976 29.2376 41.636C30.0582 42.1742 31.0182 42.461 31.9995 42.461C32.981 42.461 33.941 42.1741 34.7614 41.6358C35.5819 41.0976 36.2274 40.3312 36.6182 39.431L40.5968 40.3165C40.6579 40.3426 40.7213 40.3629 40.7862 40.377L43.7043 41.0157C45.2918 41.3603 46.7126 42.2406 47.728 43.5088C48.7432 44.7771 49.2915 46.356 49.2805 47.9805L49.2803 54ZM62 47C61.9992 47.7954 61.6827 48.5579 61.1203 49.1203C60.5579 49.6829 59.7954 49.9992 59 50H51.2803V47.9805C51.2934 45.8997 50.5904 43.8774 49.2891 42.2536C47.9878 40.6298 46.1675 39.503 44.1338 39.0626L42.04 38.6048C42.1368 37.3544 42.7008 36.1862 43.62 35.333C44.539 34.4797 45.7459 34.0038 47 34H48.1525C48.376 34.8501 48.8747 35.6022 49.5707 36.139C50.2667 36.6757 51.121 36.9669 52 36.9669C52.879 36.9669 53.7331 36.6757 54.4293 36.139C55.1253 35.6022 55.624 34.8501 55.8475 34H57C58.3256 34.0014 59.5966 34.5286 60.5339 35.4661C61.4714 36.4034 61.9986 37.6744 62 39V47ZM30.8125 32.7501H33.1875C33.4526 32.7501 33.707 32.6446 33.8946 32.4571C34.0821 32.2696 34.1875 32.0152 34.1875 31.7501C34.1875 31.4848 34.0821 31.2304 33.8946 31.0429C33.707 30.8554 33.4526 30.7501 33.1875 30.7501H30.8125C30.5474 30.7501 30.293 30.8554 30.1054 31.0429C29.9179 31.2304 29.8125 31.4848 29.8125 31.7501C29.8125 32.0152 29.9179 32.2696 30.1054 32.4571C30.293 32.6446 30.5474 32.7501 30.8125 32.7501Z"/>
</mask>
<path d="M57 32H56V30.4982C56.6747 30.061 57.2448 29.4803 57.6696 28.7978C58.0944 28.1152 58.3637 27.3474 58.4581 26.5488L58.957 22.0635C59.035 21.2571 58.9717 20.4432 58.7698 19.6586C59.5944 19.3482 60.3221 18.825 60.8789 18.1422C61.4357 17.4594 61.8016 16.6413 61.9397 15.7711C62.0778 14.9009 61.983 14.0097 61.665 13.1881C61.3469 12.3664 60.817 11.6436 60.129 11.0933C59.441 10.5429 58.6194 10.1845 57.748 10.0546C56.8766 9.92462 55.9862 10.0278 55.1677 10.3535C54.349 10.6792 53.6312 11.2159 53.0874 11.9091C52.5434 12.6022 52.1926 13.427 52.0709 14.2996C52.047 14.2993 52.024 14.292 52 14.292C51.0157 14.2919 50.0422 14.4994 49.1437 14.9011C48.245 15.3027 47.441 15.8893 46.7845 16.6227C46.1278 17.3562 45.6334 18.2198 45.3333 19.1574C45.0333 20.0949 44.9342 21.0851 45.043 22.0635L45.5419 26.5488C45.6363 27.3472 45.9056 28.115 46.3304 28.7974C46.7552 29.48 47.3253 30.0605 48 30.4976V32H47C45.2954 32.0054 43.6514 32.6341 42.3779 33.7672C41.1045 34.9005 40.2891 36.4602 40.0858 38.1528L37.0488 37.4771C37.0493 37.4464 37.0595 37.4112 37.0595 37.3808V35.3184L37.251 35.209C38.284 34.6174 39.163 33.7909 39.8168 32.796C40.4706 31.8013 40.8806 30.6664 41.0136 29.4834L41.7451 22.9005C41.8973 21.5299 41.7586 20.1429 41.3382 18.8296C40.9178 17.5165 40.2253 16.3066 39.3056 15.2792C38.3859 14.2519 37.2598 13.43 36.0011 12.8673C34.7422 12.3047 33.3789 12.0139 32 12.0139C30.6211 12.0139 29.2578 12.3047 27.9989 12.8673C26.7402 13.43 25.6141 14.2519 24.6944 15.2792C23.7747 16.3066 23.0822 17.5165 22.6618 18.8296C22.2414 20.1429 22.1027 21.5299 22.2549 22.9005L22.9864 29.4834C23.1194 30.6664 23.5294 31.8013 24.1832 32.796C24.837 33.7909 25.716 34.6174 26.749 35.209L26.9405 35.3184V37.381C26.9405 37.4112 26.9506 37.4466 26.9512 37.4773L23.9142 38.1528C23.7109 36.4602 22.8955 34.9005 21.6221 33.7672C20.3486 32.6341 18.7046 32.0054 17 32H16V30.493C16.6749 30.0562 17.245 29.4758 17.6699 28.7934C18.0947 28.111 18.3638 27.3432 18.4581 26.545L18.957 22.0595C19.0656 21.0811 18.9667 20.0909 18.6667 19.1533C18.3666 18.2158 17.8722 17.352 17.2155 16.6186C16.559 15.8851 15.7552 15.2983 14.8565 14.8966C13.9578 14.4949 12.9844 14.2873 12 14.2873C11.0156 14.2873 10.0423 14.4949 9.14358 14.8966C8.24488 15.2983 7.44101 15.8851 6.78446 16.6186C6.12792 17.352 5.63347 18.2158 5.33339 19.1533C5.03333 20.0909 4.93438 21.0811 5.04302 22.0595L5.542 26.545C5.63621 27.3448 5.90602 28.1139 6.3321 28.7973C6.75818 29.4806 7.33003 30.0614 8.00672 30.4981L8 30.5314V32H7C5.14418 32.0022 3.36501 32.7405 2.05274 34.0528C0.740471 35.365 0.00224941 37.1442 0 39V47C0.00139239 48.3256 0.528624 49.5966 1.466 50.5341C2.40339 51.4714 3.67435 51.9986 5 52H12.7197V55C12.7196 55.1314 12.7455 55.2614 12.7957 55.3827C12.8459 55.5042 12.9196 55.6144 13.0124 55.7074C13.1053 55.8002 13.2156 55.8738 13.3369 55.924C13.4583 55.9742 13.5884 56.0002 13.7197 56H50.2803C50.4117 56.0002 50.5418 55.9742 50.663 55.924C50.7845 55.8738 50.8947 55.8002 50.9875 55.7074C51.0805 55.6144 51.1541 55.5042 51.2043 55.3827C51.2546 55.2614 51.2803 55.1314 51.2803 55V52H59C60.3256 51.9986 61.5966 51.4714 62.5339 50.5341C63.4714 49.5966 63.9986 48.3256 64 47V39C63.9978 37.1442 63.2595 35.365 61.9472 34.0528C60.635 32.7405 58.8558 32.0022 57 32ZM57 12C57.7954 12.0009 58.5579 12.3172 59.1203 12.8797C59.6827 13.4421 59.9992 14.2046 60 15C59.9941 15.606 59.8029 16.1957 59.4518 16.6896C59.1008 17.1837 58.607 17.5584 58.0368 17.7634C57.1645 16.237 55.7285 15.1135 54.037 14.6342C54.1246 13.9093 54.4742 13.2415 55.02 12.7563C55.5656 12.2712 56.2699 12.0022 57 12ZM47.0414 21.9355L47.0312 21.8427C46.879 20.5338 47.2507 19.2178 48.0651 18.1818C48.8794 17.1458 50.0704 16.4738 51.3782 16.3125C52.6861 16.1512 54.0048 16.5136 55.0464 17.3206C56.0882 18.1278 56.7683 19.3141 56.9389 20.6208C56.336 20.2104 55.7699 19.7485 55.247 19.2402C55.088 19.0854 54.8822 18.9877 54.6618 18.9621C54.4413 18.9365 54.2186 18.9845 54.0283 19.0986C52.1573 20.2454 50.135 21.1254 48.0205 21.7128C47.6802 21.8029 47.3682 21.8602 47.0414 21.9355ZM47.5302 26.3282L47.264 23.9336C47.6862 23.8403 48.0941 23.7626 48.543 23.6437C50.5934 23.0766 52.5645 22.2538 54.4093 21.1944C55.1558 21.8578 55.9742 22.4354 56.8493 22.9166L56.4698 26.3282C56.4088 26.871 56.2208 27.392 55.921 27.8488C55.6211 28.3054 55.2181 28.6851 54.7442 28.9571L52.9814 29.964C52.6822 30.1339 52.3442 30.2232 52 30.2232C51.656 30.2232 51.3178 30.1339 51.0186 29.964L49.2558 28.9571C48.7821 28.6851 48.3789 28.3054 48.079 27.8488C47.7792 27.392 47.5912 26.871 47.5302 26.3282ZM54 31.6853V32.9669C54 33.4973 53.7893 34.0059 53.4142 34.381C53.0392 34.7562 52.5304 34.9669 52 34.9669C51.4696 34.9669 50.9608 34.7562 50.5858 34.381C50.2107 34.0059 50 33.4973 50 32.9669V31.6853L50.0264 31.7002C50.6278 32.0426 51.308 32.2227 52 32.2227C52.692 32.2227 53.3722 32.0426 53.9736 31.7002L54 31.6853ZM26.1846 16.6133C27.2877 15.3808 28.7539 14.5306 30.3715 14.1855C31.9891 13.8404 33.6747 14.0181 35.1848 14.6931C36.6949 15.368 37.9514 16.5053 38.7731 17.9408C39.595 19.3763 39.9394 21.0357 39.7568 22.6797L39.6853 23.3234C39.0846 23.1888 38.4941 23.0696 37.8662 22.8936C34.7195 22.005 31.7072 20.6952 28.9112 19C28.7213 18.8853 28.4984 18.8368 28.2781 18.8624C28.0576 18.8882 27.8518 18.9862 27.6933 19.1416C26.6522 20.1723 25.4926 21.0763 24.2392 21.8347C24.2206 19.9138 24.9136 18.0539 26.1846 16.6133ZM24.3928 24.0269C25.8928 23.2326 27.2846 22.2491 28.5342 21.1006C31.2979 22.7027 34.2517 23.952 37.3262 24.8194C38.0634 25.0261 38.761 25.1715 39.463 25.3246L39.1725 27.9405H37.5195C36.7118 27.9405 35.9149 27.7547 35.1904 27.3974C34.195 26.9133 33.1026 26.6619 31.9957 26.6627C30.8888 26.6634 29.7965 26.916 28.8018 27.4014C28.0795 27.7565 27.2853 27.941 26.4805 27.9406H24.8277L24.3928 24.0269ZM25.1331 29.9405H26.4805C27.5864 29.9416 28.6779 29.6891 29.6709 29.2022C30.395 28.8488 31.1899 28.6648 31.9957 28.664C32.8014 28.6634 33.5966 28.8461 34.3213 29.1982C35.3165 29.6874 36.4107 29.9413 37.5195 29.9403H38.867C38.6958 30.6758 38.3762 31.3686 37.9277 31.9763C37.4792 32.5838 36.9114 33.0933 36.2589 33.4736L33.4883 35.0586C33.0346 35.3158 32.5218 35.451 32 35.451C31.4784 35.451 30.9656 35.3158 30.5118 35.0586L27.7413 33.4736C27.0888 33.0933 26.521 32.5838 26.0723 31.9763C25.6238 31.3688 25.3043 30.676 25.1331 29.9405ZM35.0595 36.4621V37.381C35.0571 37.6051 35.0314 37.8283 34.9824 38.047C34.837 38.7298 34.4616 39.3419 33.919 39.7813C33.3766 40.2206 32.6997 40.4606 32.0016 40.4611C31.3035 40.4616 30.6264 40.2226 30.0834 39.7838C29.5402 39.3453 29.164 38.7336 29.0176 38.051C28.969 37.8309 28.943 37.6064 28.9405 37.381V36.4621L29.5195 36.7931C30.275 37.2245 31.1301 37.4514 32 37.4514C32.8701 37.4514 33.725 37.2245 34.4805 36.7931L35.0595 36.4621ZM7.04158 21.9317L7.03133 21.839C6.87928 20.5302 7.2509 19.2144 8.06514 18.1784C8.87938 17.1426 10.0702 16.4706 11.3779 16.3093C12.6855 16.1478 14.004 16.5099 15.0457 17.3168C16.0874 18.1235 16.7678 19.3094 16.9387 20.616C16.336 20.2056 15.77 19.7437 15.2471 19.2355C15.0883 19.0802 14.8824 18.9822 14.6618 18.9566C14.4412 18.9312 14.2184 18.9798 14.0284 19.0949C12.1573 20.2419 10.1352 21.1218 8.02058 21.7091C7.68018 21.799 7.36824 21.8563 7.04158 21.9317ZM7.53034 26.3243L7.264 23.9298C7.68624 23.8365 8.094 23.7587 8.54306 23.6397C10.5938 23.0726 12.565 22.2498 14.4102 21.1906C15.1558 21.8541 15.9742 22.4314 16.8496 22.9109L16.4698 26.3243C16.409 26.867 16.221 27.388 15.9212 27.8446C15.6214 28.3011 15.2182 28.6806 14.7442 28.9523L12.9815 29.9592C12.6824 30.1291 12.3442 30.2184 12.0001 30.2184C11.656 30.2184 11.3178 30.1291 11.0186 29.9592L9.25594 28.9523C8.782 28.6806 8.37877 28.3011 8.07894 27.8446C7.77912 27.388 7.5912 26.8672 7.53034 26.3243ZM14 31.6803V32.9629C14 33.4933 13.7893 34.0021 13.4142 34.3771C13.0391 34.7522 12.5304 34.9629 12 34.9629C11.4696 34.9629 10.9609 34.7522 10.5858 34.3771C10.2107 34.0021 10 33.4933 10 32.9629V31.6803L10.0264 31.6954C10.6278 32.0378 11.3079 32.2178 12 32.2178C12.692 32.2178 13.3722 32.0378 13.9736 31.6954L14 31.6803ZM12.7197 47.9805V50H5C4.20462 49.9992 3.44206 49.6829 2.87963 49.1203C2.31722 48.5579 2.00086 47.7954 2 47V39C2.00139 37.6744 2.52862 36.4034 3.466 35.4661C4.40339 34.5286 5.67435 34.0014 7 34H8.15368C8.37779 34.8493 8.87662 35.6003 9.57238 36.1363C10.2681 36.6723 11.1217 36.9629 12 36.9629C12.8783 36.9629 13.7318 36.6723 14.4276 36.1363C15.1234 35.6003 15.6222 34.8493 15.8463 34H17C18.2541 34.0038 19.4606 34.4795 20.3797 35.3326C21.2989 36.1858 21.863 37.3536 21.96 38.6038L19.8643 39.0626C17.8309 39.5035 16.011 40.6304 14.7102 42.2542C13.4093 43.8781 12.7065 45.8998 12.7197 47.9805ZM49.2803 54H14.7197V47.9805C14.7087 46.3562 15.2566 44.7776 16.2715 43.5094C17.2866 42.2413 18.7067 41.3608 20.2941 41.0157L23.2141 40.377C23.2774 40.363 23.3392 40.3427 23.3986 40.3165L27.381 39.4312C27.7717 40.3314 28.4171 41.0976 29.2376 41.636C30.0582 42.1742 31.0182 42.461 31.9995 42.461C32.981 42.461 33.941 42.1741 34.7614 41.6358C35.5819 41.0976 36.2274 40.3312 36.6182 39.431L40.5968 40.3165C40.6579 40.3426 40.7213 40.3629 40.7862 40.377L43.7043 41.0157C45.2918 41.3603 46.7126 42.2406 47.728 43.5088C48.7432 44.7771 49.2915 46.356 49.2805 47.9805L49.2803 54ZM62 47C61.9992 47.7954 61.6827 48.5579 61.1203 49.1203C60.5579 49.6829 59.7954 49.9992 59 50H51.2803V47.9805C51.2934 45.8997 50.5904 43.8774 49.2891 42.2536C47.9878 40.6298 46.1675 39.503 44.1338 39.0626L42.04 38.6048C42.1368 37.3544 42.7008 36.1862 43.62 35.333C44.539 34.4797 45.7459 34.0038 47 34H48.1525C48.376 34.8501 48.8747 35.6022 49.5707 36.139C50.2667 36.6757 51.121 36.9669 52 36.9669C52.879 36.9669 53.7331 36.6757 54.4293 36.139C55.1253 35.6022 55.624 34.8501 55.8475 34H57C58.3256 34.0014 59.5966 34.5286 60.5339 35.4661C61.4714 36.4034 61.9986 37.6744 62 39V47ZM30.8125 32.7501H33.1875C33.4526 32.7501 33.707 32.6446 33.8946 32.4571C34.0821 32.2696 34.1875 32.0152 34.1875 31.7501C34.1875 31.4848 34.0821 31.2304 33.8946 31.0429C33.707 30.8554 33.4526 30.7501 33.1875 30.7501H30.8125C30.5474 30.7501 30.293 30.8554 30.1054 31.0429C29.9179 31.2304 29.8125 31.4848 29.8125 31.7501C29.8125 32.0152 29.9179 32.2696 30.1054 32.4571C30.293 32.6446 30.5474 32.7501 30.8125 32.7501Z" fill="white" stroke="white" stroke-opacity="0.8" stroke-width="3.2" mask="url(#path-3-inside-1_366_2300)"/>
<mask id="mask1_366_2300" style="mask-type:luminance" maskUnits="userSpaceOnUse" x="-2" y="8" width="68" height="49">
<path d="M65.6004 8.40039H-1.59961V56.4004H65.6004V8.40039Z" fill="white"/>
<path d="M64.8008 9.2002V55.6006H-0.799805V9.2002H64.8008Z" stroke="white" stroke-opacity="0.8" stroke-width="1.6"/>
<mask id="path-6-inside-2_366_2300" fill="white">
<path d="M57 32H56V30.4982C56.6747 30.061 57.2448 29.4803 57.6696 28.7978C58.0944 28.1152 58.3637 27.3474 58.4581 26.5488L58.957 22.0635C59.035 21.2571 58.9717 20.4432 58.7698 19.6586C59.5944 19.3482 60.3221 18.825 60.8789 18.1422C61.4357 17.4594 61.8016 16.6413 61.9397 15.7711C62.0778 14.9009 61.983 14.0097 61.665 13.1881C61.3469 12.3664 60.817 11.6436 60.129 11.0933C59.441 10.5429 58.6194 10.1845 57.748 10.0546C56.8766 9.92462 55.9862 10.0278 55.1677 10.3535C54.349 10.6792 53.6312 11.2159 53.0874 11.9091C52.5434 12.6022 52.1926 13.427 52.0709 14.2996C52.047 14.2993 52.024 14.292 52 14.292C51.0157 14.2919 50.0422 14.4994 49.1437 14.9011C48.245 15.3027 47.441 15.8893 46.7845 16.6227C46.1278 17.3562 45.6334 18.2198 45.3333 19.1574C45.0333 20.0949 44.9342 21.0851 45.043 22.0635L45.5419 26.5488C45.6363 27.3472 45.9056 28.115 46.3304 28.7974C46.7552 29.48 47.3253 30.0605 48 30.4976V32H47C45.2954 32.0054 43.6514 32.6341 42.3779 33.7672C41.1045 34.9005 40.2891 36.4602 40.0858 38.1528L37.0488 37.4771C37.0493 37.4464 37.0595 37.4112 37.0595 37.3808V35.3184L37.251 35.209C38.284 34.6174 39.163 33.7909 39.8168 32.796C40.4706 31.8013 40.8806 30.6664 41.0136 29.4834L41.7451 22.9005C41.8973 21.5299 41.7586 20.1429 41.3382 18.8296C40.9178 17.5165 40.2253 16.3066 39.3056 15.2792C38.3859 14.2519 37.2598 13.43 36.0011 12.8673C34.7422 12.3047 33.3789 12.0139 32 12.0139C30.6211 12.0139 29.2578 12.3047 27.9989 12.8673C26.7402 13.43 25.6141 14.2519 24.6944 15.2792C23.7747 16.3066 23.0822 17.5165 22.6618 18.8296C22.2414 20.1429 22.1027 21.5299 22.2549 22.9005L22.9864 29.4834C23.1194 30.6664 23.5294 31.8013 24.1832 32.796C24.837 33.7909 25.716 34.6174 26.749 35.209L26.9405 35.3184V37.381C26.9405 37.4112 26.9506 37.4466 26.9512 37.4773L23.9142 38.1528C23.7109 36.4602 22.8955 34.9005 21.6221 33.7672C20.3486 32.6341 18.7046 32.0054 17 32H16V30.493C16.6749 30.0562 17.245 29.4758 17.6699 28.7934C18.0947 28.111 18.3638 27.3432 18.4581 26.545L18.957 22.0595C19.0656 21.0811 18.9667 20.0909 18.6667 19.1533C18.3666 18.2158 17.8722 17.352 17.2155 16.6186C16.559 15.8851 15.7552 15.2983 14.8565 14.8966C13.9578 14.4949 12.9844 14.2873 12 14.2873C11.0156 14.2873 10.0423 14.4949 9.14358 14.8966C8.24488 15.2983 7.44101 15.8851 6.78446 16.6186C6.12792 17.352 5.63347 18.2158 5.33339 19.1533C5.03333 20.0909 4.93438 21.0811 5.04302 22.0595L5.542 26.545C5.63621 27.3448 5.90602 28.1139 6.3321 28.7973C6.75818 29.4806 7.33003 30.0614 8.00672 30.4981L8 30.5314V32H7C5.14418 32.0022 3.36501 32.7405 2.05274 34.0528C0.740471 35.365 0.00224941 37.1442 0 39V47C0.00139239 48.3256 0.528624 49.5966 1.466 50.5341C2.40339 51.4714 3.67435 51.9986 5 52H12.7197V55C12.7196 55.1314 12.7455 55.2614 12.7957 55.3827C12.8459 55.5042 12.9196 55.6144 13.0124 55.7074C13.1053 55.8002 13.2156 55.8738 13.3369 55.924C13.4583 55.9742 13.5884 56.0002 13.7197 56H50.2803C50.4117 56.0002 50.5418 55.9742 50.663 55.924C50.7845 55.8738 50.8947 55.8002 50.9875 55.7074C51.0805 55.6144 51.1541 55.5042 51.2043 55.3827C51.2546 55.2614 51.2803 55.1314 51.2803 55V52H59C60.3256 51.9986 61.5966 51.4714 62.5339 50.5341C63.4714 49.5966 63.9986 48.3256 64 47V39C63.9978 37.1442 63.2595 35.365 61.9472 34.0528C60.635 32.7405 58.8558 32.0022 57 32ZM57 12C57.7954 12.0009 58.5579 12.3172 59.1203 12.8797C59.6827 13.4421 59.9992 14.2046 60 15C59.9941 15.606 59.8029 16.1957 59.4518 16.6896C59.1008 17.1837 58.607 17.5584 58.0368 17.7634C57.1645 16.237 55.7285 15.1135 54.037 14.6342C54.1246 13.9093 54.4742 13.2415 55.02 12.7563C55.5656 12.2712 56.2699 12.0022 57 12ZM47.0414 21.9355L47.0312 21.8427C46.879 20.5338 47.2507 19.2178 48.0651 18.1818C48.8794 17.1458 50.0704 16.4738 51.3782 16.3125C52.6861 16.1512 54.0048 16.5136 55.0464 17.3206C56.0882 18.1278 56.7683 19.3141 56.9389 20.6208C56.336 20.2104 55.7699 19.7485 55.247 19.2402C55.088 19.0854 54.8822 18.9877 54.6618 18.9621C54.4413 18.9365 54.2186 18.9845 54.0283 19.0986C52.1573 20.2454 50.135 21.1254 48.0205 21.7128C47.6802 21.8029 47.3682 21.8602 47.0414 21.9355ZM47.5302 26.3282L47.264 23.9336C47.6862 23.8403 48.0941 23.7626 48.543 23.6437C50.5934 23.0766 52.5645 22.2538 54.4093 21.1944C55.1558 21.8578 55.9742 22.4354 56.8493 22.9166L56.4698 26.3282C56.4088 26.871 56.2208 27.392 55.921 27.8488C55.6211 28.3054 55.2181 28.6851 54.7442 28.9571L52.9814 29.964C52.6822 30.1339 52.3442 30.2232 52 30.2232C51.656 30.2232 51.3178 30.1339 51.0186 29.964L49.2558 28.9571C48.7821 28.6851 48.3789 28.3054 48.079 27.8488C47.7792 27.392 47.5912 26.871 47.5302 26.3282ZM54 31.6853V32.9669C54 33.4973 53.7893 34.0059 53.4142 34.381C53.0392 34.7562 52.5304 34.9669 52 34.9669C51.4696 34.9669 50.9608 34.7562 50.5858 34.381C50.2107 34.0059 50 33.4973 50 32.9669V31.6853L50.0264 31.7002C50.6278 32.0426 51.308 32.2227 52 32.2227C52.692 32.2227 53.3722 32.0426 53.9736 31.7002L54 31.6853ZM26.1846 16.6133C27.2877 15.3808 28.7539 14.5306 30.3715 14.1855C31.9891 13.8404 33.6747 14.0181 35.1848 14.6931C36.6949 15.368 37.9514 16.5053 38.7731 17.9408C39.595 19.3763 39.9394 21.0357 39.7568 22.6797L39.6853 23.3234C39.0846 23.1888 38.4941 23.0696 37.8662 22.8936C34.7195 22.005 31.7072 20.6952 28.9112 19C28.7213 18.8853 28.4984 18.8368 28.2781 18.8624C28.0576 18.8882 27.8518 18.9862 27.6933 19.1416C26.6522 20.1723 25.4926 21.0763 24.2392 21.8347C24.2206 19.9138 24.9136 18.0539 26.1846 16.6133ZM24.3928 24.0269C25.8928 23.2326 27.2846 22.2491 28.5342 21.1006C31.2979 22.7027 34.2517 23.952 37.3262 24.8194C38.0634 25.0261 38.761 25.1715 39.463 25.3246L39.1725 27.9405H37.5195C36.7118 27.9405 35.9149 27.7547 35.1904 27.3974C34.195 26.9133 33.1026 26.6619 31.9957 26.6627C30.8888 26.6634 29.7965 26.916 28.8018 27.4014C28.0795 27.7565 27.2853 27.941 26.4805 27.9406H24.8277L24.3928 24.0269ZM25.1331 29.9405H26.4805C27.5864 29.9416 28.6779 29.6891 29.6709 29.2022C30.395 28.8488 31.1899 28.6648 31.9957 28.664C32.8014 28.6634 33.5966 28.8461 34.3213 29.1982C35.3165 29.6874 36.4107 29.9413 37.5195 29.9403H38.867C38.6958 30.6758 38.3762 31.3686 37.9277 31.9763C37.4792 32.5838 36.9114 33.0933 36.2589 33.4736L33.4883 35.0586C33.0346 35.3158 32.5218 35.451 32 35.451C31.4784 35.451 30.9656 35.3158 30.5118 35.0586L27.7413 33.4736C27.0888 33.0933 26.521 32.5838 26.0723 31.9763C25.6238 31.3688 25.3043 30.676 25.1331 29.9405ZM35.0595 36.4621V37.381C35.0571 37.6051 35.0314 37.8283 34.9824 38.047C34.837 38.7298 34.4616 39.3419 33.919 39.7813C33.3766 40.2206 32.6997 40.4606 32.0016 40.4611C31.3035 40.4616 30.6264 40.2226 30.0834 39.7838C29.5402 39.3453 29.164 38.7336 29.0176 38.051C28.969 37.8309 28.943 37.6064 28.9405 37.381V36.4621L29.5195 36.7931C30.275 37.2245 31.1301 37.4514 32 37.4514C32.8701 37.4514 33.725 37.2245 34.4805 36.7931L35.0595 36.4621ZM7.04158 21.9317L7.03133 21.839C6.87928 20.5302 7.2509 19.2144 8.06514 18.1784C8.87938 17.1426 10.0702 16.4706 11.3779 16.3093C12.6855 16.1478 14.004 16.5099 15.0457 17.3168C16.0874 18.1235 16.7678 19.3094 16.9387 20.616C16.336 20.2056 15.77 19.7437 15.2471 19.2355C15.0883 19.0802 14.8824 18.9822 14.6618 18.9566C14.4412 18.9312 14.2184 18.9798 14.0284 19.0949C12.1573 20.2419 10.1352 21.1218 8.02058 21.7091C7.68018 21.799 7.36824 21.8563 7.04158 21.9317ZM7.53034 26.3243L7.264 23.9298C7.68624 23.8365 8.094 23.7587 8.54306 23.6397C10.5938 23.0726 12.565 22.2498 14.4102 21.1906C15.1558 21.8541 15.9742 22.4314 16.8496 22.9109L16.4698 26.3243C16.409 26.867 16.221 27.388 15.9212 27.8446C15.6214 28.3011 15.2182 28.6806 14.7442 28.9523L12.9815 29.9592C12.6824 30.1291 12.3442 30.2184 12.0001 30.2184C11.656 30.2184 11.3178 30.1291 11.0186 29.9592L9.25594 28.9523C8.782 28.6806 8.37877 28.3011 8.07894 27.8446C7.77912 27.388 7.5912 26.8672 7.53034 26.3243ZM14 31.6803V32.9629C14 33.4933 13.7893 34.0021 13.4142 34.3771C13.0391 34.7522 12.5304 34.9629 12 34.9629C11.4696 34.9629 10.9609 34.7522 10.5858 34.3771C10.2107 34.0021 10 33.4933 10 32.9629V31.6803L10.0264 31.6954C10.6278 32.0378 11.3079 32.2178 12 32.2178C12.692 32.2178 13.3722 32.0378 13.9736 31.6954L14 31.6803ZM12.7197 47.9805V50H5C4.20462 49.9992 3.44206 49.6829 2.87963 49.1203C2.31722 48.5579 2.00086 47.7954 2 47V39C2.00139 37.6744 2.52862 36.4034 3.466 35.4661C4.40339 34.5286 5.67435 34.0014 7 34H8.15368C8.37779 34.8493 8.87662 35.6003 9.57238 36.1363C10.2681 36.6723 11.1217 36.9629 12 36.9629C12.8783 36.9629 13.7318 36.6723 14.4276 36.1363C15.1234 35.6003 15.6222 34.8493 15.8463 34H17C18.2541 34.0038 19.4606 34.4795 20.3797 35.3326C21.2989 36.1858 21.863 37.3536 21.96 38.6038L19.8643 39.0626C17.8309 39.5035 16.011 40.6304 14.7102 42.2542C13.4093 43.8781 12.7065 45.8998 12.7197 47.9805ZM49.2803 54H14.7197V47.9805C14.7087 46.3562 15.2566 44.7776 16.2715 43.5094C17.2866 42.2413 18.7067 41.3608 20.2941 41.0157L23.2141 40.377C23.2774 40.363 23.3392 40.3427 23.3986 40.3165L27.381 39.4312C27.7717 40.3314 28.4171 41.0976 29.2376 41.636C30.0582 42.1742 31.0182 42.461 31.9995 42.461C32.981 42.461 33.941 42.1741 34.7614 41.6358C35.5819 41.0976 36.2274 40.3312 36.6182 39.431L40.5968 40.3165C40.6579 40.3426 40.7213 40.3629 40.7862 40.377L43.7043 41.0157C45.2918 41.3603 46.7126 42.2406 47.728 43.5088C48.7432 44.7771 49.2915 46.356 49.2805 47.9805L49.2803 54ZM62 47C61.9992 47.7954 61.6827 48.5579 61.1203 49.1203C60.5579 49.6829 59.7954 49.9992 59 50H51.2803V47.9805C51.2934 45.8997 50.5904 43.8774 49.2891 42.2536C47.9878 40.6298 46.1675 39.503 44.1338 39.0626L42.04 38.6048C42.1368 37.3544 42.7008 36.1862 43.62 35.333C44.539 34.4797 45.7459 34.0038 47 34H48.1525C48.376 34.8501 48.8747 35.6022 49.5707 36.139C50.2667 36.6757 51.121 36.9669 52 36.9669C52.879 36.9669 53.7331 36.6757 54.4293 36.139C55.1253 35.6022 55.624 34.8501 55.8475 34H57C58.3256 34.0014 59.5966 34.5286 60.5339 35.4661C61.4714 36.4034 61.9986 37.6744 62 39V47ZM30.8125 32.7501H33.1875C33.4526 32.7501 33.707 32.6446 33.8946 32.4571C34.0821 32.2696 34.1875 32.0152 34.1875 31.7501C34.1875 31.4848 34.0821 31.2304 33.8946 31.0429C33.707 30.8554 33.4526 30.7501 33.1875 30.7501H30.8125C30.5474 30.7501 30.293 30.8554 30.1054 31.0429C29.9179 31.2304 29.8125 31.4848 29.8125 31.7501C29.8125 32.0152 29.9179 32.2696 30.1054 32.4571C30.293 32.6446 30.5474 32.7501 30.8125 32.7501Z"/>
</mask>
<path d="M57 32H56V30.4982C56.6747 30.061 57.2448 29.4803 57.6696 28.7978C58.0944 28.1152 58.3637 27.3474 58.4581 26.5488L58.957 22.0635C59.035 21.2571 58.9717 20.4432 58.7698 19.6586C59.5944 19.3482 60.3221 18.825 60.8789 18.1422C61.4357 17.4594 61.8016 16.6413 61.9397 15.7711C62.0778 14.9009 61.983 14.0097 61.665 13.1881C61.3469 12.3664 60.817 11.6436 60.129 11.0933C59.441 10.5429 58.6194 10.1845 57.748 10.0546C56.8766 9.92462 55.9862 10.0278 55.1677 10.3535C54.349 10.6792 53.6312 11.2159 53.0874 11.9091C52.5434 12.6022 52.1926 13.427 52.0709 14.2996C52.047 14.2993 52.024 14.292 52 14.292C51.0157 14.2919 50.0422 14.4994 49.1437 14.9011C48.245 15.3027 47.441 15.8893 46.7845 16.6227C46.1278 17.3562 45.6334 18.2198 45.3333 19.1574C45.0333 20.0949 44.9342 21.0851 45.043 22.0635L45.5419 26.5488C45.6363 27.3472 45.9056 28.115 46.3304 28.7974C46.7552 29.48 47.3253 30.0605 48 30.4976V32H47C45.2954 32.0054 43.6514 32.6341 42.3779 33.7672C41.1045 34.9005 40.2891 36.4602 40.0858 38.1528L37.0488 37.4771C37.0493 37.4464 37.0595 37.4112 37.0595 37.3808V35.3184L37.251 35.209C38.284 34.6174 39.163 33.7909 39.8168 32.796C40.4706 31.8013 40.8806 30.6664 41.0136 29.4834L41.7451 22.9005C41.8973 21.5299 41.7586 20.1429 41.3382 18.8296C40.9178 17.5165 40.2253 16.3066 39.3056 15.2792C38.3859 14.2519 37.2598 13.43 36.0011 12.8673C34.7422 12.3047 33.3789 12.0139 32 12.0139C30.6211 12.0139 29.2578 12.3047 27.9989 12.8673C26.7402 13.43 25.6141 14.2519 24.6944 15.2792C23.7747 16.3066 23.0822 17.5165 22.6618 18.8296C22.2414 20.1429 22.1027 21.5299 22.2549 22.9005L22.9864 29.4834C23.1194 30.6664 23.5294 31.8013 24.1832 32.796C24.837 33.7909 25.716 34.6174 26.749 35.209L26.9405 35.3184V37.381C26.9405 37.4112 26.9506 37.4466 26.9512 37.4773L23.9142 38.1528C23.7109 36.4602 22.8955 34.9005 21.6221 33.7672C20.3486 32.6341 18.7046 32.0054 17 32H16V30.493C16.6749 30.0562 17.245 29.4758 17.6699 28.7934C18.0947 28.111 18.3638 27.3432 18.4581 26.545L18.957 22.0595C19.0656 21.0811 18.9667 20.0909 18.6667 19.1533C18.3666 18.2158 17.8722 17.352 17.2155 16.6186C16.559 15.8851 15.7552 15.2983 14.8565 14.8966C13.9578 14.4949 12.9844 14.2873 12 14.2873C11.0156 14.2873 10.0423 14.4949 9.14358 14.8966C8.24488 15.2983 7.44101 15.8851 6.78446 16.6186C6.12792 17.352 5.63347 18.2158 5.33339 19.1533C5.03333 20.0909 4.93438 21.0811 5.04302 22.0595L5.542 26.545C5.63621 27.3448 5.90602 28.1139 6.3321 28.7973C6.75818 29.4806 7.33003 30.0614 8.00672 30.4981L8 30.5314V32H7C5.14418 32.0022 3.36501 32.7405 2.05274 34.0528C0.740471 35.365 0.00224941 37.1442 0 39V47C0.00139239 48.3256 0.528624 49.5966 1.466 50.5341C2.40339 51.4714 3.67435 51.9986 5 52H12.7197V55C12.7196 55.1314 12.7455 55.2614 12.7957 55.3827C12.8459 55.5042 12.9196 55.6144 13.0124 55.7074C13.1053 55.8002 13.2156 55.8738 13.3369 55.924C13.4583 55.9742 13.5884 56.0002 13.7197 56H50.2803C50.4117 56.0002 50.5418 55.9742 50.663 55.924C50.7845 55.8738 50.8947 55.8002 50.9875 55.7074C51.0805 55.6144 51.1541 55.5042 51.2043 55.3827C51.2546 55.2614 51.2803 55.1314 51.2803 55V52H59C60.3256 51.9986 61.5966 51.4714 62.5339 50.5341C63.4714 49.5966 63.9986 48.3256 64 47V39C63.9978 37.1442 63.2595 35.365 61.9472 34.0528C60.635 32.7405 58.8558 32.0022 57 32ZM57 12C57.7954 12.0009 58.5579 12.3172 59.1203 12.8797C59.6827 13.4421 59.9992 14.2046 60 15C59.9941 15.606 59.8029 16.1957 59.4518 16.6896C59.1008 17.1837 58.607 17.5584 58.0368 17.7634C57.1645 16.237 55.7285 15.1135 54.037 14.6342C54.1246 13.9093 54.4742 13.2415 55.02 12.7563C55.5656 12.2712 56.2699 12.0022 57 12ZM47.0414 21.9355L47.0312 21.8427C46.879 20.5338 47.2507 19.2178 48.0651 18.1818C48.8794 17.1458 50.0704 16.4738 51.3782 16.3125C52.6861 16.1512 54.0048 16.5136 55.0464 17.3206C56.0882 18.1278 56.7683 19.3141 56.9389 20.6208C56.336 20.2104 55.7699 19.7485 55.247 19.2402C55.088 19.0854 54.8822 18.9877 54.6618 18.9621C54.4413 18.9365 54.2186 18.9845 54.0283 19.0986C52.1573 20.2454 50.135 21.1254 48.0205 21.7128C47.6802 21.8029 47.3682 21.8602 47.0414 21.9355ZM47.5302 26.3282L47.264 23.9336C47.6862 23.8403 48.0941 23.7626 48.543 23.6437C50.5934 23.0766 52.5645 22.2538 54.4093 21.1944C55.1558 21.8578 55.9742 22.4354 56.8493 22.9166L56.4698 26.3282C56.4088 26.871 56.2208 27.392 55.921 27.8488C55.6211 28.3054 55.2181 28.6851 54.7442 28.9571L52.9814 29.964C52.6822 30.1339 52.3442 30.2232 52 30.2232C51.656 30.2232 51.3178 30.1339 51.0186 29.964L49.2558 28.9571C48.7821 28.6851 48.3789 28.3054 48.079 27.8488C47.7792 27.392 47.5912 26.871 47.5302 26.3282ZM54 31.6853V32.9669C54 33.4973 53.7893 34.0059 53.4142 34.381C53.0392 34.7562 52.5304 34.9669 52 34.9669C51.4696 34.9669 50.9608 34.7562 50.5858 34.381C50.2107 34.0059 50 33.4973 50 32.9669V31.6853L50.0264 31.7002C50.6278 32.0426 51.308 32.2227 52 32.2227C52.692 32.2227 53.3722 32.0426 53.9736 31.7002L54 31.6853ZM26.1846 16.6133C27.2877 15.3808 28.7539 14.5306 30.3715 14.1855C31.9891 13.8404 33.6747 14.0181 35.1848 14.6931C36.6949 15.368 37.9514 16.5053 38.7731 17.9408C39.595 19.3763 39.9394 21.0357 39.7568 22.6797L39.6853 23.3234C39.0846 23.1888 38.4941 23.0696 37.8662 22.8936C34.7195 22.005 31.7072 20.6952 28.9112 19C28.7213 18.8853 28.4984 18.8368 28.2781 18.8624C28.0576 18.8882 27.8518 18.9862 27.6933 19.1416C26.6522 20.1723 25.4926 21.0763 24.2392 21.8347C24.2206 19.9138 24.9136 18.0539 26.1846 16.6133ZM24.3928 24.0269C25.8928 23.2326 27.2846 22.2491 28.5342 21.1006C31.2979 22.7027 34.2517 23.952 37.3262 24.8194C38.0634 25.0261 38.761 25.1715 39.463 25.3246L39.1725 27.9405H37.5195C36.7118 27.9405 35.9149 27.7547 35.1904 27.3974C34.195 26.9133 33.1026 26.6619 31.9957 26.6627C30.8888 26.6634 29.7965 26.916 28.8018 27.4014C28.0795 27.7565 27.2853 27.941 26.4805 27.9406H24.8277L24.3928 24.0269ZM25.1331 29.9405H26.4805C27.5864 29.9416 28.6779 29.6891 29.6709 29.2022C30.395 28.8488 31.1899 28.6648 31.9957 28.664C32.8014 28.6634 33.5966 28.8461 34.3213 29.1982C35.3165 29.6874 36.4107 29.9413 37.5195 29.9403H38.867C38.6958 30.6758 38.3762 31.3686 37.9277 31.9763C37.4792 32.5838 36.9114 33.0933 36.2589 33.4736L33.4883 35.0586C33.0346 35.3158 32.5218 35.451 32 35.451C31.4784 35.451 30.9656 35.3158 30.5118 35.0586L27.7413 33.4736C27.0888 33.0933 26.521 32.5838 26.0723 31.9763C25.6238 31.3688 25.3043 30.676 25.1331 29.9405ZM35.0595 36.4621V37.381C35.0571 37.6051 35.0314 37.8283 34.9824 38.047C34.837 38.7298 34.4616 39.3419 33.919 39.7813C33.3766 40.2206 32.6997 40.4606 32.0016 40.4611C31.3035 40.4616 30.6264 40.2226 30.0834 39.7838C29.5402 39.3453 29.164 38.7336 29.0176 38.051C28.969 37.8309 28.943 37.6064 28.9405 37.381V36.4621L29.5195 36.7931C30.275 37.2245 31.1301 37.4514 32 37.4514C32.8701 37.4514 33.725 37.2245 34.4805 36.7931L35.0595 36.4621ZM7.04158 21.9317L7.03133 21.839C6.87928 20.5302 7.2509 19.2144 8.06514 18.1784C8.87938 17.1426 10.0702 16.4706 11.3779 16.3093C12.6855 16.1478 14.004 16.5099 15.0457 17.3168C16.0874 18.1235 16.7678 19.3094 16.9387 20.616C16.336 20.2056 15.77 19.7437 15.2471 19.2355C15.0883 19.0802 14.8824 18.9822 14.6618 18.9566C14.4412 18.9312 14.2184 18.9798 14.0284 19.0949C12.1573 20.2419 10.1352 21.1218 8.02058 21.7091C7.68018 21.799 7.36824 21.8563 7.04158 21.9317ZM7.53034 26.3243L7.264 23.9298C7.68624 23.8365 8.094 23.7587 8.54306 23.6397C10.5938 23.0726 12.565 22.2498 14.4102 21.1906C15.1558 21.8541 15.9742 22.4314 16.8496 22.9109L16.4698 26.3243C16.409 26.867 16.221 27.388 15.9212 27.8446C15.6214 28.3011 15.2182 28.6806 14.7442 28.9523L12.9815 29.9592C12.6824 30.1291 12.3442 30.2184 12.0001 30.2184C11.656 30.2184 11.3178 30.1291 11.0186 29.9592L9.25594 28.9523C8.782 28.6806 8.37877 28.3011 8.07894 27.8446C7.77912 27.388 7.5912 26.8672 7.53034 26.3243ZM14 31.6803V32.9629C14 33.4933 13.7893 34.0021 13.4142 34.3771C13.0391 34.7522 12.5304 34.9629 12 34.9629C11.4696 34.9629 10.9609 34.7522 10.5858 34.3771C10.2107 34.0021 10 33.4933 10 32.9629V31.6803L10.0264 31.6954C10.6278 32.0378 11.3079 32.2178 12 32.2178C12.692 32.2178 13.3722 32.0378 13.9736 31.6954L14 31.6803ZM12.7197 47.9805V50H5C4.20462 49.9992 3.44206 49.6829 2.87963 49.1203C2.31722 48.5579 2.00086 47.7954 2 47V39C2.00139 37.6744 2.52862 36.4034 3.466 35.4661C4.40339 34.5286 5.67435 34.0014 7 34H8.15368C8.37779 34.8493 8.87662 35.6003 9.57238 36.1363C10.2681 36.6723 11.1217 36.9629 12 36.9629C12.8783 36.9629 13.7318 36.6723 14.4276 36.1363C15.1234 35.6003 15.6222 34.8493 15.8463 34H17C18.2541 34.0038 19.4606 34.4795 20.3797 35.3326C21.2989 36.1858 21.863 37.3536 21.96 38.6038L19.8643 39.0626C17.8309 39.5035 16.011 40.6304 14.7102 42.2542C13.4093 43.8781 12.7065 45.8998 12.7197 47.9805ZM49.2803 54H14.7197V47.9805C14.7087 46.3562 15.2566 44.7776 16.2715 43.5094C17.2866 42.2413 18.7067 41.3608 20.2941 41.0157L23.2141 40.377C23.2774 40.363 23.3392 40.3427 23.3986 40.3165L27.381 39.4312C27.7717 40.3314 28.4171 41.0976 29.2376 41.636C30.0582 42.1742 31.0182 42.461 31.9995 42.461C32.981 42.461 33.941 42.1741 34.7614 41.6358C35.5819 41.0976 36.2274 40.3312 36.6182 39.431L40.5968 40.3165C40.6579 40.3426 40.7213 40.3629 40.7862 40.377L43.7043 41.0157C45.2918 41.3603 46.7126 42.2406 47.728 43.5088C48.7432 44.7771 49.2915 46.356 49.2805 47.9805L49.2803 54ZM62 47C61.9992 47.7954 61.6827 48.5579 61.1203 49.1203C60.5579 49.6829 59.7954 49.9992 59 50H51.2803V47.9805C51.2934 45.8997 50.5904 43.8774 49.2891 42.2536C47.9878 40.6298 46.1675 39.503 44.1338 39.0626L42.04 38.6048C42.1368 37.3544 42.7008 36.1862 43.62 35.333C44.539 34.4797 45.7459 34.0038 47 34H48.1525C48.376 34.8501 48.8747 35.6022 49.5707 36.139C50.2667 36.6757 51.121 36.9669 52 36.9669C52.879 36.9669 53.7331 36.6757 54.4293 36.139C55.1253 35.6022 55.624 34.8501 55.8475 34H57C58.3256 34.0014 59.5966 34.5286 60.5339 35.4661C61.4714 36.4034 61.9986 37.6744 62 39V47ZM30.8125 32.7501H33.1875C33.4526 32.7501 33.707 32.6446 33.8946 32.4571C34.0821 32.2696 34.1875 32.0152 34.1875 31.7501C34.1875 31.4848 34.0821 31.2304 33.8946 31.0429C33.707 30.8554 33.4526 30.7501 33.1875 30.7501H30.8125C30.5474 30.7501 30.293 30.8554 30.1054 31.0429C29.9179 31.2304 29.8125 31.4848 29.8125 31.7501C29.8125 32.0152 29.9179 32.2696 30.1054 32.4571C30.293 32.6446 30.5474 32.7501 30.8125 32.7501Z" fill="black" stroke="white" stroke-opacity="0.8" stroke-width="3.2" mask="url(#path-6-inside-2_366_2300)"/>
</mask>
<g mask="url(#mask1_366_2300)">
<path d="M57 32H56V30.4982C56.6747 30.061 57.2448 29.4803 57.6696 28.7978C58.0944 28.1152 58.3637 27.3474 58.4581 26.5488L58.957 22.0635C59.035 21.2571 58.9717 20.4432 58.7698 19.6586C59.5944 19.3482 60.3221 18.825 60.8789 18.1422C61.4357 17.4594 61.8016 16.6413 61.9397 15.7711C62.0778 14.9009 61.983 14.0097 61.665 13.1881C61.3469 12.3664 60.817 11.6436 60.129 11.0933C59.441 10.5429 58.6194 10.1845 57.748 10.0546C56.8766 9.92462 55.9862 10.0278 55.1677 10.3535C54.349 10.6792 53.6312 11.2159 53.0874 11.9091C52.5434 12.6022 52.1926 13.427 52.0709 14.2996C52.047 14.2993 52.024 14.292 52 14.292C51.0157 14.2919 50.0422 14.4994 49.1437 14.9011C48.245 15.3027 47.441 15.8893 46.7845 16.6227C46.1278 17.3562 45.6334 18.2198 45.3333 19.1574C45.0333 20.0949 44.9342 21.0851 45.043 22.0635L45.5419 26.5488C45.6363 27.3472 45.9056 28.115 46.3304 28.7974C46.7552 29.48 47.3253 30.0605 48 30.4976V32H47C45.2954 32.0054 43.6514 32.6341 42.3779 33.7672C41.1045 34.9005 40.2891 36.4602 40.0858 38.1528L37.0488 37.4771C37.0493 37.4464 37.0595 37.4112 37.0595 37.3808V35.3184L37.251 35.209C38.284 34.6174 39.163 33.7909 39.8168 32.796C40.4706 31.8013 40.8806 30.6664 41.0136 29.4834L41.7451 22.9005C41.8973 21.5299 41.7586 20.1429 41.3382 18.8296C40.9178 17.5165 40.2253 16.3066 39.3056 15.2792C38.3859 14.2519 37.2598 13.43 36.0011 12.8673C34.7422 12.3047 33.3789 12.0139 32 12.0139C30.6211 12.0139 29.2578 12.3047 27.9989 12.8673C26.7402 13.43 25.6141 14.2519 24.6944 15.2792C23.7747 16.3066 23.0822 17.5165 22.6618 18.8296C22.2414 20.1429 22.1027 21.5299 22.2549 22.9005L22.9864 29.4834C23.1194 30.6664 23.5294 31.8013 24.1832 32.796C24.837 33.7909 25.716 34.6174 26.749 35.209L26.9405 35.3184V37.381C26.9405 37.4112 26.9506 37.4466 26.9512 37.4773L23.9142 38.1528C23.7109 36.4602 22.8955 34.9005 21.6221 33.7672C20.3486 32.6341 18.7046 32.0054 17 32H16V30.493C16.6749 30.0562 17.245 29.4758 17.6699 28.7934C18.0947 28.111 18.3638 27.3432 18.4581 26.545L18.957 22.0595C19.0656 21.0811 18.9667 20.0909 18.6667 19.1533C18.3666 18.2158 17.8722 17.352 17.2155 16.6186C16.559 15.8851 15.7552 15.2983 14.8565 14.8966C13.9578 14.4949 12.9844 14.2873 12 14.2873C11.0156 14.2873 10.0423 14.4949 9.14358 14.8966C8.24488 15.2983 7.44101 15.8851 6.78446 16.6186C6.12792 17.352 5.63347 18.2158 5.33339 19.1533C5.03333 20.0909 4.93438 21.0811 5.04302 22.0595L5.542 26.545C5.63621 27.3448 5.90602 28.1139 6.3321 28.7973C6.75818 29.4806 7.33003 30.0614 8.00672 30.4981L8 30.5314V32H7C5.14418 32.0022 3.36501 32.7405 2.05274 34.0528C0.740471 35.365 0.00224941 37.1442 0 39V47C0.00139239 48.3256 0.528624 49.5966 1.466 50.5341C2.40339 51.4714 3.67435 51.9986 5 52H12.7197V55C12.7196 55.1314 12.7455 55.2614 12.7957 55.3827C12.8459 55.5042 12.9196 55.6144 13.0124 55.7074C13.1053 55.8002 13.2156 55.8738 13.3369 55.924C13.4583 55.9742 13.5884 56.0002 13.7197 56H50.2803C50.4117 56.0002 50.5418 55.9742 50.663 55.924C50.7845 55.8738 50.8947 55.8002 50.9875 55.7074C51.0805 55.6144 51.1541 55.5042 51.2043 55.3827C51.2546 55.2614 51.2803 55.1314 51.2803 55V52H59C60.3256 51.9986 61.5966 51.4714 62.5339 50.5341C63.4714 49.5966 63.9986 48.3256 64 47V39C63.9978 37.1442 63.2595 35.365 61.9472 34.0528C60.635 32.7405 58.8558 32.0022 57 32ZM57 12C57.7954 12.0009 58.5579 12.3172 59.1203 12.8797C59.6827 13.4421 59.9992 14.2046 60 15C59.9941 15.606 59.8029 16.1957 59.4518 16.6896C59.1008 17.1837 58.607 17.5584 58.0368 17.7634C57.1645 16.237 55.7285 15.1135 54.037 14.6342C54.1246 13.9093 54.4742 13.2415 55.02 12.7563C55.5656 12.2712 56.2699 12.0022 57 12ZM47.0414 21.9355L47.0312 21.8427C46.879 20.5338 47.2507 19.2178 48.0651 18.1818C48.8794 17.1458 50.0704 16.4738 51.3782 16.3125C52.6861 16.1512 54.0048 16.5136 55.0464 17.3206C56.0882 18.1278 56.7683 19.3141 56.9389 20.6208C56.336 20.2104 55.7699 19.7485 55.247 19.2402C55.088 19.0854 54.8822 18.9877 54.6618 18.9621C54.4413 18.9365 54.2186 18.9845 54.0283 19.0986C52.1573 20.2454 50.135 21.1254 48.0205 21.7128C47.6802 21.8029 47.3682 21.8602 47.0414 21.9355ZM47.5302 26.3282L47.264 23.9336C47.6862 23.8403 48.0941 23.7626 48.543 23.6437C50.5934 23.0766 52.5645 22.2538 54.4093 21.1944C55.1558 21.8578 55.9742 22.4354 56.8493 22.9166L56.4698 26.3282C56.4088 26.871 56.2208 27.392 55.921 27.8488C55.6211 28.3054 55.2181 28.6851 54.7442 28.9571L52.9814 29.964C52.6822 30.1339 52.3442 30.2232 52 30.2232C51.656 30.2232 51.3178 30.1339 51.0186 29.964L49.2558 28.9571C48.7821 28.6851 48.3789 28.3054 48.079 27.8488C47.7792 27.392 47.5912 26.871 47.5302 26.3282ZM54 31.6853V32.9669C54 33.4973 53.7893 34.0059 53.4142 34.381C53.0392 34.7562 52.5304 34.9669 52 34.9669C51.4696 34.9669 50.9608 34.7562 50.5858 34.381C50.2107 34.0059 50 33.4973 50 32.9669V31.6853L50.0264 31.7002C50.6278 32.0426 51.308 32.2227 52 32.2227C52.692 32.2227 53.3722 32.0426 53.9736 31.7002L54 31.6853ZM26.1846 16.6133C27.2877 15.3808 28.7539 14.5306 30.3715 14.1855C31.9891 13.8404 33.6747 14.0181 35.1848 14.6931C36.6949 15.368 37.9514 16.5053 38.7731 17.9408C39.595 19.3763 39.9394 21.0357 39.7568 22.6797L39.6853 23.3234C39.0846 23.1888 38.4941 23.0696 37.8662 22.8936C34.7195 22.005 31.7072 20.6952 28.9112 19C28.7213 18.8853 28.4984 18.8368 28.2781 18.8624C28.0576 18.8882 27.8518 18.9862 27.6933 19.1416C26.6522 20.1723 25.4926 21.0763 24.2392 21.8347C24.2206 19.9138 24.9136 18.0539 26.1846 16.6133ZM24.3928 24.0269C25.8928 23.2326 27.2846 22.2491 28.5342 21.1006C31.2979 22.7027 34.2517 23.952 37.3262 24.8194C38.0634 25.0261 38.761 25.1715 39.463 25.3246L39.1725 27.9405H37.5195C36.7118 27.9405 35.9149 27.7547 35.1904 27.3974C34.195 26.9133 33.1026 26.6619 31.9957 26.6627C30.8888 26.6634 29.7965 26.916 28.8018 27.4014C28.0795 27.7565 27.2853 27.941 26.4805 27.9406H24.8277L24.3928 24.0269ZM25.1331 29.9405H26.4805C27.5864 29.9416 28.6779 29.6891 29.6709 29.2022C30.395 28.8488 31.1899 28.6648 31.9957 28.664C32.8014 28.6634 33.5966 28.8461 34.3213 29.1982C35.3165 29.6874 36.4107 29.9413 37.5195 29.9403H38.867C38.6958 30.6758 38.3762 31.3686 37.9277 31.9763C37.4792 32.5838 36.9114 33.0933 36.2589 33.4736L33.4883 35.0586C33.0346 35.3158 32.5218 35.451 32 35.451C31.4784 35.451 30.9656 35.3158 30.5118 35.0586L27.7413 33.4736C27.0888 33.0933 26.521 32.5838 26.0723 31.9763C25.6238 31.3688 25.3043 30.676 25.1331 29.9405ZM35.0595 36.4621V37.381C35.0571 37.6051 35.0314 37.8283 34.9824 38.047C34.837 38.7298 34.4616 39.3419 33.919 39.7813C33.3766 40.2206 32.6997 40.4606 32.0016 40.4611C31.3035 40.4616 30.6264 40.2226 30.0834 39.7838C29.5402 39.3453 29.164 38.7336 29.0176 38.051C28.969 37.8309 28.943 37.6064 28.9405 37.381V36.4621L29.5195 36.7931C30.275 37.2245 31.1301 37.4514 32 37.4514C32.8701 37.4514 33.725 37.2245 34.4805 36.7931L35.0595 36.4621ZM7.04158 21.9317L7.03133 21.839C6.87928 20.5302 7.2509 19.2144 8.06514 18.1784C8.87938 17.1426 10.0702 16.4706 11.3779 16.3093C12.6855 16.1478 14.004 16.5099 15.0457 17.3168C16.0874 18.1235 16.7678 19.3094 16.9387 20.616C16.336 20.2056 15.77 19.7437 15.2471 19.2355C15.0883 19.0802 14.8824 18.9822 14.6618 18.9566C14.4412 18.9312 14.2184 18.9798 14.0284 19.0949C12.1573 20.2419 10.1352 21.1218 8.02058 21.7091C7.68018 21.799 7.36824 21.8563 7.04158 21.9317ZM7.53034 26.3243L7.264 23.9298C7.68624 23.8365 8.094 23.7587 8.54306 23.6397C10.5938 23.0726 12.565 22.2498 14.4102 21.1906C15.1558 21.8541 15.9742 22.4314 16.8496 22.9109L16.4698 26.3243C16.409 26.867 16.221 27.388 15.9212 27.8446C15.6214 28.3011 15.2182 28.6806 14.7442 28.9523L12.9815 29.9592C12.6824 30.1291 12.3442 30.2184 12.0001 30.2184C11.656 30.2184 11.3178 30.1291 11.0186 29.9592L9.25594 28.9523C8.782 28.6806 8.37877 28.3011 8.07894 27.8446C7.77912 27.388 7.5912 26.8672 7.53034 26.3243ZM14 31.6803V32.9629C14 33.4933 13.7893 34.0021 13.4142 34.3771C13.0391 34.7522 12.5304 34.9629 12 34.9629C11.4696 34.9629 10.9609 34.7522 10.5858 34.3771C10.2107 34.0021 10 33.4933 10 32.9629V31.6803L10.0264 31.6954C10.6278 32.0378 11.3079 32.2178 12 32.2178C12.692 32.2178 13.3722 32.0378 13.9736 31.6954L14 31.6803ZM12.7197 47.9805V50H5C4.20462 49.9992 3.44206 49.6829 2.87963 49.1203C2.31722 48.5579 2.00086 47.7954 2 47V39C2.00139 37.6744 2.52862 36.4034 3.466 35.4661C4.40339 34.5286 5.67435 34.0014 7 34H8.15368C8.37779 34.8493 8.87662 35.6003 9.57238 36.1363C10.2681 36.6723 11.1217 36.9629 12 36.9629C12.8783 36.9629 13.7318 36.6723 14.4276 36.1363C15.1234 35.6003 15.6222 34.8493 15.8463 34H17C18.2541 34.0038 19.4606 34.4795 20.3797 35.3326C21.2989 36.1858 21.863 37.3536 21.96 38.6038L19.8643 39.0626C17.8309 39.5035 16.011 40.6304 14.7102 42.2542C13.4093 43.8781 12.7065 45.8998 12.7197 47.9805ZM49.2803 54H14.7197V47.9805C14.7087 46.3562 15.2566 44.7776 16.2715 43.5094C17.2866 42.2413 18.7067 41.3608 20.2941 41.0157L23.2141 40.377C23.2774 40.363 23.3392 40.3427 23.3986 40.3165L27.381 39.4312C27.7717 40.3314 28.4171 41.0976 29.2376 41.636C30.0582 42.1742 31.0182 42.461 31.9995 42.461C32.981 42.461 33.941 42.1741 34.7614 41.6358C35.5819 41.0976 36.2274 40.3312 36.6182 39.431L40.5968 40.3165C40.6579 40.3426 40.7213 40.3629 40.7862 40.377L43.7043 41.0157C45.2918 41.3603 46.7126 42.2406 47.728 43.5088C48.7432 44.7771 49.2915 46.356 49.2805 47.9805L49.2803 54ZM62 47C61.9992 47.7954 61.6827 48.5579 61.1203 49.1203C60.5579 49.6829 59.7954 49.9992 59 50H51.2803V47.9805C51.2934 45.8997 50.5904 43.8774 49.2891 42.2536C47.9878 40.6298 46.1675 39.503 44.1338 39.0626L42.04 38.6048C42.1368 37.3544 42.7008 36.1862 43.62 35.333C44.539 34.4797 45.7459 34.0038 47 34H48.1525C48.376 34.8501 48.8747 35.6022 49.5707 36.139C50.2667 36.6757 51.121 36.9669 52 36.9669C52.879 36.9669 53.7331 36.6757 54.4293 36.139C55.1253 35.6022 55.624 34.8501 55.8475 34H57C58.3256 34.0014 59.5966 34.5286 60.5339 35.4661C61.4714 36.4034 61.9986 37.6744 62 39V47ZM30.8125 32.7501H33.1875C33.4526 32.7501 33.707 32.6446 33.8946 32.4571C34.0821 32.2696 34.1875 32.0152 34.1875 31.7501C34.1875 31.4848 34.0821 31.2304 33.8946 31.0429C33.707 30.8554 33.4526 30.7501 33.1875 30.7501H30.8125C30.5474 30.7501 30.293 30.8554 30.1054 31.0429C29.9179 31.2304 29.8125 31.4848 29.8125 31.7501C29.8125 32.0152 29.9179 32.2696 30.1054 32.4571C30.293 32.6446 30.5474 32.7501 30.8125 32.7501Z" stroke="#666666" stroke-width="0.64"/>
</g>
</g>
</svg>
