<svg width="48" height="44" viewBox="0 0 48 44" fill="none" xmlns="http://www.w3.org/2000/svg">
<path d="M15.1538 0C13.6253 1.88616 12.921 3.49944 12.9062 5.07031C12.8915 6.64119 13.5903 7.85806 14.0586 8.6435C14.5269 9.42894 14.7353 9.8235 14.75 10.2549C14.7647 10.6882 14.6209 11.4442 13.4815 12.9062L16.3633 15.2109C17.8032 13.3524 18.4873 11.682 18.4375 10.1406C18.3877 8.59925 17.6816 7.49669 17.228 6.74075C16.7744 5.98481 16.5864 5.58103 16.5938 5.12747C16.6011 4.67391 16.7966 3.83131 18.0337 2.30469L15.1538 0ZM24.3725 0C22.8441 1.88616 22.1397 3.49944 22.125 5.07031C22.1103 6.64119 22.809 7.85806 23.2773 8.6435C23.7457 9.42894 23.954 9.8235 23.9688 10.2549C23.9835 10.6882 23.8397 11.4442 22.7003 12.9062L25.582 15.2109C27.022 13.3524 27.706 11.682 27.6562 10.1406C27.6065 8.59925 26.9003 7.49669 26.4468 6.74075C25.9932 5.98481 25.8051 5.58103 25.8125 5.12747C25.8199 4.67391 26.0153 3.83131 27.2525 2.30469L24.3725 0ZM33.5913 0C32.0628 1.88616 31.3585 3.49944 31.3438 5.07031C31.329 6.64119 32.0278 7.85806 32.4961 8.6435C32.9644 9.42894 33.1727 9.8235 33.1875 10.2549C33.2023 10.6882 33.0584 11.4442 31.919 12.9062L34.8008 15.2109C36.2407 13.3524 36.9248 11.682 36.875 10.1406C36.8252 8.59925 36.1191 7.49669 35.6655 6.74075C35.2119 5.98481 35.0239 5.58103 35.0312 5.12747C35.0386 4.67391 35.2341 3.83131 36.4712 2.30469L33.5913 0ZM0 17.7461V21.4336H2.19038L5.01131 35.435V35.4922C5.22512 36.4324 5.67634 37.3021 6.32189 38.0184C6.96744 38.7346 7.78578 39.2735 8.69881 39.5835L7.375 43.5586H11.0625L12.272 39.8711H35.6655L36.875 43.5586H40.5625L39.2368 39.5835C41.1672 38.9935 42.6662 37.4447 43.0977 35.4922V35.435L45.749 21.4336H47.9375V17.7461H0ZM5.93503 21.4336H42.0596L39.4673 34.7436C39.2516 35.542 38.5749 36.1836 37.6236 36.1836H10.4872C9.499 36.1836 8.82972 35.5291 8.6435 34.6846L5.93503 21.4336Z" fill="white"/>
</svg>
