<svg width="42" height="40" viewBox="0 0 42 40" fill="none" xmlns="http://www.w3.org/2000/svg">
<path d="M3.26667 40L0 36.8889L23.9167 14.1111C23.2167 12.5556 23.1194 10.7963 23.625 8.83333C24.1306 6.87037 25.2389 5.11111 26.95 3.55556C29.0111 1.59259 31.3056 0.444444 33.8333 0.111111C36.3611 -0.222222 38.4222 0.37037 40.0167 1.88889C41.6111 3.40741 42.2333 5.37037 41.8833 7.77778C41.5333 10.1852 40.3278 12.3704 38.2667 14.3333C36.6333 15.963 34.7861 17.0185 32.725 17.5C30.6639 17.9815 28.8167 17.8889 27.1833 17.2222L24.2667 20L42 36.8889L38.7333 40L21 23.2222L3.26667 40ZM10.15 21L3.15 14.3333C1.05 12.3333 0 9.94444 0 7.16667C0 4.38889 1.05 2 3.15 0L17.6167 13.8889L10.15 21Z" fill="white"/>
</svg>
