<svg width="39" height="39" viewBox="0 0 39 39" fill="none" xmlns="http://www.w3.org/2000/svg">
<path d="M29.0714 0.5H9.07143C6.79814 0.5 4.61797 1.40306 3.01051 3.01051C1.40306 4.61797 0.5 6.79814 0.5 9.07143V29.0714C0.5 31.3447 1.40306 33.5249 3.01051 35.1323C4.61797 36.7398 6.79814 37.6429 9.07143 37.6429H29.0714C31.3447 37.6429 33.5249 36.7398 35.1323 35.1323C36.7398 33.5249 37.6429 31.3447 37.6429 29.0714V9.07143C37.6429 6.79814 36.7398 4.61797 35.1323 3.01051C33.5249 1.40306 31.3447 0.5 29.0714 0.5Z" stroke="white" stroke-linecap="round" stroke-linejoin="round"/>
<path d="M13.9551 29.1113V20.7455M13.9551 20.7455V9.03125H23.0551C24.1917 9.03125 25.2818 9.48278 26.0855 10.2865C26.8893 11.0902 27.3408 12.1803 27.3408 13.317V16.4598C27.3408 17.5965 26.8893 18.6866 26.0855 19.4903C25.2818 20.294 24.1917 20.7455 23.0551 20.7455H13.9551Z" stroke="white" stroke-linecap="round" stroke-linejoin="round"/>
</svg>
