<svg width="59" height="55" viewBox="0 0 59 55" fill="none" xmlns="http://www.w3.org/2000/svg">
<path d="M31.7275 0.0284185C28.5994 -0.536363 20.2914 7.50426 20.2914 7.50426L25.6661 18.114L33.9208 28.7848L40.5422 35.0555L47.2915 36.8041L51.118 38.854H39.3293L16.213 35.2551L14.5758 29.2692L17.9287 30.6555L15.22 23.7812H19.4341L17.2408 16.6076L19.9485 15.5817L21.7978 12.0874L20.2924 7.50523C20.2924 7.50523 18.7589 5.79151 18.1437 5.8167C15.4583 5.91842 10.0178 12.9002 6.82194 17.091C3.30731 21.6935 0 21.9735 0 21.9735V54.2503H58.125V38.853H52.6225L49.0536 35.8693L43.2925 32.8845L45.2271 31.4382L40.1111 27.6417L37.5526 20.1038L40.8851 21.5492L35.7682 14.4357H37.3162L35.0813 9.91742L34.2201 2.92014C34.2211 2.92111 32.5316 0.172762 31.7275 0.0284185ZM37.3434 40.6626C38.6628 40.9581 39.9425 41.3592 41.3995 40.6491C43.8059 39.5273 45.5555 41.1199 47.8785 41.426C45.6601 41.7273 43.8292 40.1608 41.572 41.2536C39.4901 42.2184 37.9062 41.1644 36.0123 40.6626H37.3434ZM1.81641 34.8463L27.5706 38.854H1.81641V34.8463ZM13.4317 41.2836C11.9253 41.5742 10.5923 40.4989 9.05394 41.2536C7.40997 42.0102 6.22228 41.0153 4.67809 40.6626H5.86869C6.84712 40.8302 7.80037 41.1577 8.84663 40.6626H11.4991C12.1152 40.8777 12.7352 41.1519 13.4317 41.2836ZM9.7495 51.7045C7.33925 52.8224 5.59453 51.2336 3.26856 50.9256C5.48797 50.632 7.31794 52.1975 9.57416 51.1019C11.9815 49.9781 13.7311 51.5717 16.0551 51.8788C13.8367 52.1772 12.0067 50.6127 9.7495 51.7045ZM25.8773 44.7566C24.242 44.5609 22.939 45.0743 21.3968 45.6052C18.5729 46.5759 16.5201 44.6742 13.8618 44.1317C13.9791 44.1085 14.0692 44.0988 14.1457 44.0949C15.4835 43.9322 16.6015 44.5464 17.9277 44.7072C19.5629 44.9067 20.8669 44.3826 22.4082 43.8527C25.2292 42.8879 27.2868 44.7818 29.9421 45.3301C28.4745 45.6362 27.2965 44.928 25.8773 44.7566ZM39.1976 49.6672C36.3737 50.6359 34.3209 48.7372 31.6626 48.1937C31.7559 48.1745 31.8504 48.1622 31.9455 48.1569C33.2833 47.9922 34.4023 48.6093 35.7275 48.7691C37.3628 48.9668 38.6667 48.4446 40.2089 47.9157C43.0299 46.9498 45.0876 48.8437 47.7429 49.3911C46.2743 49.6982 45.0973 48.99 43.678 48.8185C42.0418 48.62 40.7388 49.1373 39.1976 49.6672ZM50.1968 52.401C47.7865 53.5189 46.0427 51.9302 43.7168 51.6221C45.9362 51.3257 47.7662 52.8941 50.0233 51.7984C52.4297 50.6747 54.1793 52.2673 56.5023 52.5734C54.2839 52.8737 52.4539 51.3082 50.1968 52.401ZM56.6719 44.8302C55.1655 45.1208 53.8325 44.0445 52.2951 44.7992C50.5862 45.5849 49.3753 44.4727 47.7439 44.1647C47.8446 44.1443 47.9153 44.1424 47.9618 44.1443C49.3791 43.9922 50.6569 44.9125 52.1197 44.1966C53.8267 43.4032 55.0405 44.5212 56.6719 44.8302Z" fill="white"/>
</svg>
