<svg width="40" height="55" viewBox="0 0 40 55" fill="none" xmlns="http://www.w3.org/2000/svg">
<path d="M28.0902 15.5C29.623 15.5 31.1214 15.0455 32.3959 14.1939C33.6704 13.3423 34.6637 12.1319 35.2503 10.7158C35.8369 9.29967 35.9904 7.74141 35.6913 6.23805C35.3923 4.7347 34.6542 3.35378 33.5703 2.26993C32.4865 1.18607 31.1055 0.447953 29.6022 0.148918C28.0988 -0.150118 26.5406 0.00335793 25.1244 0.589937C23.7083 1.17652 22.4979 2.16985 21.6463 3.44433C20.7948 4.71881 20.3402 6.2172 20.3402 7.75C20.3402 9.80543 21.1568 11.7767 22.6102 13.2301C24.0636 14.6835 26.0348 15.5 28.0902 15.5ZM28.0902 3.875C28.8566 3.875 29.6058 4.10227 30.2431 4.52806C30.8803 4.95385 31.377 5.55904 31.6703 6.26711C31.9636 6.97517 32.0403 7.7543 31.8908 8.50598C31.7413 9.25766 31.3722 9.94811 30.8303 10.49C30.2883 11.032 29.5979 11.401 28.8462 11.5505C28.0945 11.7001 27.3154 11.6233 26.6073 11.33C25.8993 11.0367 25.2941 10.5401 24.8683 9.90284C24.4425 9.2656 24.2152 8.51641 24.2152 7.75C24.2152 6.72229 24.6235 5.73667 25.3502 5.00996C26.0769 4.28326 27.0625 3.875 28.0902 3.875ZM39.7152 31V52.3125C39.7152 52.8264 39.5111 53.3192 39.1478 53.6825C38.7844 54.0459 38.2916 54.25 37.7777 54.25C37.2639 54.25 36.7711 54.0459 36.4077 53.6825C36.0444 53.3192 35.8402 52.8264 35.8402 52.3125V32.8552C29.6039 32.3102 27.5211 29.0964 25.6684 26.2289C24.9781 25.1657 24.3218 24.1534 23.4572 23.2766L20.2119 30.7384L29.2213 37.1734C29.4713 37.3532 29.6749 37.59 29.8152 37.8642C29.9554 38.1383 30.0283 38.442 30.0277 38.75V52.3125C30.0277 52.8264 29.8236 53.3192 29.4603 53.6825C29.0969 54.0459 28.6041 54.25 28.0902 54.25C27.5764 54.25 27.0836 54.0459 26.7202 53.6825C26.3569 53.3192 26.1527 52.8264 26.1527 52.3125V39.7478L18.628 34.3713L10.4929 53.0851C10.3423 53.4314 10.0939 53.7261 9.77805 53.933C9.46223 54.14 9.09282 54.2502 8.71523 54.25C8.44915 54.2509 8.18588 54.1956 7.94266 54.0877C7.47166 53.883 7.10123 53.4996 6.91276 53.0219C6.7243 52.5441 6.73322 52.0111 6.93758 51.5399L20.8706 19.4961C20.9764 19.253 21.1309 19.0342 21.3246 18.8532C21.5184 18.6723 21.7472 18.533 21.9969 18.444C22.2466 18.355 22.5119 18.3182 22.7764 18.3359C23.041 18.3535 23.299 18.4253 23.5347 18.5467C24.2306 18.9102 24.881 19.3549 25.4722 19.8715C27.0149 21.2084 28.0176 22.7559 28.9016 24.1219C30.7616 26.9894 32.1057 29.0625 37.7656 29.0625C38.0211 29.0609 38.2743 29.1098 38.5108 29.2065C38.7473 29.3032 38.9623 29.4456 39.1435 29.6257C39.3247 29.8058 39.4685 30.0199 39.5666 30.2557C39.6647 30.4916 39.7152 30.7445 39.7152 31ZM8.71523 32.9375C9.09473 32.9378 9.46596 32.8266 9.78284 32.6178C10.0997 32.409 10.3483 32.1117 10.4977 31.7629L16.3102 18.2004C16.5123 17.7283 16.5187 17.1952 16.328 16.7184C16.1373 16.2415 15.765 15.8599 15.293 15.6574L8.5118 12.7512C8.03967 12.5491 7.50661 12.5427 7.02977 12.7334C6.55294 12.9242 6.17134 13.2964 5.96883 13.7684L0.156329 27.3309C-0.045773 27.803 -0.052158 28.3361 0.138577 28.8129C0.329311 29.2897 0.701559 29.6713 1.17352 29.8738L7.95477 32.7801C8.19503 32.8833 8.45372 32.9369 8.71523 32.9375ZM4.47938 27.0766L8.76367 17.0742L11.9848 18.4547L7.69805 28.4546L4.47938 27.0766Z" fill="white"/>
</svg>
